<svg xmlns="http://www.w3.org/2000/svg" viewBox="0 0 4961 3508"><path fill="#FFF" d="M3112 3512H4.183V4.39h4963.135V3512H3112M139.776 3353.025c.357 5.707-2.007 11.85 3.149 17.956h11.369c1559.78-.157 3119.561-.314 4679.342-.49.642 0 1.354-.17 1.908-.481.56-.315.964-.906 1.985-1.922.332-1.216 1.279-3.063 1.279-4.91-.037-1073.85-.138-2147.699-.309-3221.548 0-1.149-1.083-2.298-1.881-3.888-1.531-.428-3.372-1.402-5.205-1.386-21.306.187-42.61.522-67.533.085-7.332-.042-14.664-.122-21.996-.122-1524.475-.005-3048.95-.005-4573.425-.005-5.332 0-10.672-.159-15.995.063-3.804.159-7.586.832-12.18 1.37-.223 7.577-.586 14.138-.586 20.698-.025 1057.2-.026 2114.4.012 3171.601 0 6.641.56 13.282.066 22.979z"/><path fill="#E90B35" d="M140.568 3349.97c-.298-6.642-.857-13.283-.858-19.924-.038-1057.2-.037-2114.4-.012-3171.6 0-6.561.363-13.122.586-20.7 4.594-.537 8.376-1.21 12.18-1.369 5.323-.222 10.663-.063 15.995-.063 1524.475 0 3048.95 0 4573.425.005 7.332 0 14.664.08 23.117 1.535-96.684 69.405-194.474 137.42-292.3 205.382-126.796 88.087-253.593 176.172-380.443 264.181-95.138 66.007-190.39 131.85-285.5 197.899-9.79 6.799-18.956 14.497-29.862 22.22-5.216 1.68-8.9 3.574-12.76 4.056-33.66 4.202-67.345 8.213-101.037 12.16-38.979 4.564-77.982 8.924-116.957 13.524-41.613 4.912-83.206 9.994-124.807 15.015-13.865 1.674-27.807 2.91-41.562 5.24-10.635 1.802-14.381 7.584-13.388 18.521.722 7.95 1.785 15.875 2.929 23.777 7.337 50.679 14.882 101.329 21.97 152.043 1.085 7.773.16 15.827-1.182 24.023-6.367 3.53-11.484 6.651-16.396 10.066-89.685 62.326-179.344 124.689-269.01 187.043-57.953 40.302-115.899 80.616-173.869 120.895-20.235 14.06-40.492 28.09-60.83 42-4.19 2.867-8.164 7.318-14.58 2.694 1.463-4.168 3.069-7.11 5.156-9.657 67.125-81.914 134.297-163.79 201.46-245.672 18.587-22.66 37.328-45.194 55.684-68.038 8.563-10.658 7.65-16.531-2.597-25.51-1.5-1.316-3.107-2.513-4.694-3.727-46.643-35.674-95.504-67.791-147.735-94.866-90.971-47.157-187.566-75.427-289.205-85.922-42.998-4.44-86.22-5.446-129.66-2.478-56.66 3.87-112.494 11.8-167.51 25.527-126.566 31.582-238.032 91.354-334.445 179.343-43.47 39.671-82 83.64-117.25 130.654-111.665 148.93-167.007 316.688-167.16 502.552-.043 52.625 5.083 104.977 13.905 156.982 13.765 81.14 36.218 159.554 70.579 234.45a46.35 46.35 0 014.06 15.36c-65.986 45.332-130.691 90.193-195.35 135.12-3.766 2.615-7.163 5.76-12.14 8.09-4.57-2.99-7.963-5.163-10.852-7.872-23.823-22.336-47.532-44.792-71.315-67.169-20.386-19.18-40.643-38.503-61.32-57.366-9.91-9.042-16.53-8.225-25.378 1.968-6.11 7.04-11.552 14.683-17.895 21.496-25.9 27.82-57.523 47.24-92.316 61.807-42.086 17.622-86.127 27.425-131.245 33.384-46.54 6.146-92.905 6.772-139.368-.563-100.18-15.814-200.624-87.885-237.76-196.75-14.3-41.923-22.288-84.92-24.867-129.053-2.315-39.619 1.608-78.47 13.584-116.394 14.475-45.842 39.07-85.94 69.877-122.445 32.4-38.392 71.708-67.447 118.312-86.385 31.071-12.625 63.402-19.59 96.796-23.15 32.837-3.501 65.211-1.954 97.434 4.115 51.416 9.686 97.014 32.382 138.724 63.442 4.807 3.58 9.451 7.434 14.54 10.56 6.571 4.038 13.126 2.721 17.58-3.514 2.683-3.755 4.665-8.055 6.646-12.259 9.936-21.094 19.734-42.253 29.643-63.36 56.343-120.006 112.71-240 169.033-360.016a193.56 193.56 0 006.166-14.722c2.696-7.246.372-13.123-5.759-17.437-3.803-2.676-7.863-5.007-11.908-7.317-85.65-48.91-176.669-83.925-272.775-106.022-61.302-14.095-123.364-21.387-186.2-21.32-66.27.07-131.368 9.716-195.689 25.484-126.167 30.931-237.797 89.528-333.865 176.796-93.487 84.924-165.921 185.456-216.912 301.148-35.502 80.55-56.466 165.003-64.507 252.497-4.023 43.774-4.838 87.674-1.938 131.779 3.86 58.685 12.093 116.558 25.423 173.727 23.987 102.877 64.461 198.718 123.549 286.502 53.687 79.762 119.056 148.606 194.586 207.895 63.718 50.017 131.929 92.641 206.863 123.923 18.424 7.69 37.247 14.44 55.98 21.373 4.47 1.654 9.023 2.68 8.936 8.386-36.923 24.888-72.5 49.524-108.057 74.19-132.418 91.858-264.85 183.698-397.235 275.602-77.135 53.549-154.15 107.27-231.322 160.765-17.495 12.128-35.413 23.645-53.136 35.443z"/><path fill="#2D2A25" d="M3778.346 827.094c9.456-7.281 18.622-14.98 28.413-21.778 95.11-66.048 190.361-131.892 285.499-197.899 126.85-88.009 253.647-176.094 380.443-264.18 97.826-67.963 195.616-135.978 294.11-205.016 21.992-1.343 43.296-1.678 64.602-1.865 1.833-.016 3.674.958 5.205 1.386.798 1.59 1.881 2.739 1.881 3.888.171 1073.85.272 2147.699.309 3221.548 0 1.847-.947 3.694-1.279 4.91-1.021 1.016-1.425 1.607-1.985 1.922-.554.312-1.266.48-1.908.48-1559.78.177-3119.561.334-4679.342.49h-11.37c-5.155-6.105-2.791-12.248-2.752-19.483 18.12-13.326 36.037-24.843 53.532-36.97 77.172-53.497 154.187-107.217 231.322-160.766 132.386-91.904 264.817-183.744 397.235-275.602 35.557-24.666 71.134-49.302 109.75-74.163 8.31.391 13.71.441 18.815 1.692 22.527 5.522 44.747 12.57 67.494 16.852 33.145 6.239 66.249 13.57 100.285 13.58 3.317.002 6.94-.3 9.895.868 9.02 3.563 18.354 3.181 27.63 2.87 28.515-.952 57.058 2.134 85.595-3.253 15.455-2.918 31.585-1.827 47.497-3.892 28.22-3.661 56.312-7.984 84.462-12.067 28.894-4.19 57.398-10.14 85.773-16.706 38.273-8.855 75.542-21.192 111.237-37.543 32.644-14.953 64.033-32.199 93.005-53.901 28.735-21.525 57.11-43.316 82.53-68.746 11.78-11.783 23.275-23.868 35.409-35.274 23.933-22.498 42.647-49.078 60.633-76.246 9.028-13.637 8.505-19.469-3.378-31.192-16.555-16.332-33.354-32.354-50.832-47.798-32.878-29.05-63.772-60.344-95.545-90.648-12.493-11.916-23.764-25.07-38.236-34.986-5.78-3.961-9.629-10.74-14.357-16.236 3.569-2.9 6.966-6.044 10.731-8.66 64.66-44.926 129.365-89.787 196.037-133.807 24.736 46.844 51.048 90.686 81.73 131.835 23.439 31.433 47.287 62.535 75.875 89.643 10.155 9.63 20.143 19.47 29.687 29.701 21.414 22.953 46.113 42.246 70.671 61.39 41.937 32.688 86.585 61.641 133.27 87.195 37.995 20.798 77.937 37.304 118.646 52.083 31.301 11.363 63.396 19.757 95.763 27.18 19.357 4.44 38.826 8.708 58.465 11.505 18.34 2.612 36.973 3.159 55.473 4.659 3.967.321 7.922.803 11.876 1.258 7.225.832 14.435 2.305 21.67 2.433 19.326.344 38.663.135 57.996.097 3.995-.007 8.217.574 11.946-.484 21.99-6.234 45.02-1.68 67.185-7.084 12.785-3.116 26.444-2.533 39.35-5.292 35.65-7.621 71.226-15.398 106.348-25.554 35.921-10.388 70.626-23.664 104.296-39.361 44.028-20.525 86.035-44.84 125.104-74.023 22.874-17.085 45.947-34.024 66.807-53.436 40.941-38.098 78.588-79.32 112.445-123.955 24.96-32.907 47.301-67.555 66.89-103.784 25.347-46.876 45.86-95.897 60.154-147.44 15.273-55.075 27.344-110.645 29.8-167.964.142-3.3.873-6.573 1.265-9.866.857-7.223 2.306-14.443 2.39-21.677.297-25.33.155-50.664.085-75.996-.015-5.32.716-11.025-.91-15.878-3.285-9.806-2.35-19.739-3.04-29.658-1.242-17.852-2.354-35.755-4.715-53.477-3.055-22.943-7.458-45.703-10.95-68.592-2.995-19.627-5.336-39.353-8.327-58.98-1.967-12.907-6.914-17.819-19.842-17.215-19.178.896-38.3 3.139-57.425 5.018-10.54 1.036-21.045 2.432-31.55 3.788-17.71 2.285-35.386 4.835-53.113 6.957-15.13 1.812-30.346 2.912-45.463 4.814-16.4 2.063-32.711 4.818-49.095 7.028-11.808 1.592-23.655 2.943-35.512 4.118-16.487 1.634-33.141 2.137-49.448 4.805-9.859 1.614-19.643 2.719-29.559 3.686-16.435 1.603-32.722 4.68-49.107 6.874a1190.017 1190.017 0 01-39.477 4.624c-16.484 1.648-33.302 1.532-49.405 4.903-11.895 2.489-23.763 2.43-35.57 4.077-17.03 2.375-34.053 4.793-51.097 7.05-11.154 1.478-22.325 2.86-33.518 4.003-16.481 1.682-33.255 1.804-49.393 5.099-11.235 2.293-22.442 2.214-33.589 3.782-17.026 2.394-34.033 4.948-51.093 7.077-13.799 1.722-27.683 2.744-41.49 4.41-8.64 1.041-14.463 7.344-15 15.965-.246 3.953.006 8.018.65 11.931 2.147 13.05 4.75 26.027 6.837 39.086 1.67 10.457 3.482 20.956 4.09 31.503 1.035 17.925 4.544 35.428 7.398 53.07 2.114 13.069 3.188 26.304 4.908 39.442 1.718 13.127 3.588 26.236 5.529 39.333 2.037 13.744 4.317 27.452 6.347 41.197 2.804 18.986 5.222 38.034 8.3 56.975 1.743 10.728 9.278 16.271 19.986 14.852 14.41-1.91 28.692-4.797 43.103-6.696 15.106-1.99 30.298-3.335 45.457-4.91 15.82-1.644 31.675-2.978 47.46-4.901 17.064-2.08 34.063-4.7 51.095-7.052 7.852-1.084 15.713-2.093 23.571-3.134 7.178-.951 14.351-1.67 22.841.134-8.691 18.306-20.475 33.478-32.99 47.749-13.595 15.504-28.666 29.778-43.736 43.902-7.7 7.216-16.458 13.47-25.342 19.225-25.257 16.363-52.352 28.652-81.297 37.336-29.442 8.834-59.283 14.18-89.953 14.621-19.912.288-39.704.058-59.595-3.379-15.693-2.71-31.306-5.315-46.654-9.584-21.983-6.114-41.95-16.809-62.243-26.837-48.826-24.126-87.35-60.218-119.459-103.468-21.176-28.525-35.853-60.672-48.058-93.847-4.547-12.36-8.92-25.092-7.72-39.78 86.119-60.314 171.45-119.525 256.746-178.785 58.504-40.647 116.902-81.447 175.466-122.007 24.61-17.044 49.526-33.647 75.955-50.378 10.614.939 18.755.138 24.805-8.035 7.077-9.562 14.766-18.67 23.467-28.086 5.908-3.699 10.539-7.286 15.72-12.181.04-2.106-.47-2.904-.94-3.614.04.087-.15.078-.15.078 6.049 3.213 10.023-1.238 14.213-4.105 20.338-13.91 40.595-27.94 60.83-42 57.97-40.279 115.916-80.593 173.87-120.895 89.665-62.354 179.324-124.717 269.009-187.043 4.912-3.415 10.029-6.536 17.639-8.97 3.095 2.05 3.923 3.24 4.061 4.505 1.647 15.147 2.987 30.33 4.829 45.452 1.44 11.823 3.462 23.574 5.237 35.355 2.167 14.39 4.472 28.76 6.486 43.171 1.832 13.117 3.114 26.314 5.082 39.41 1.966 13.074 4.8 26.02 6.668 39.107 1.87 13.105 2.92 26.326 4.515 39.473 1.195 9.852 2.594 19.682 4.066 29.497 2.15 14.34 7.832 19.086 22.855 18.988 4.642-.03 9.307-.412 13.916-.994 17.712-2.234 35.386-4.773 53.112-6.89 15.127-1.808 30.338-2.933 45.452-4.836 16.396-2.063 32.707-4.803 49.087-7.007 11.807-1.588 23.652-2.934 35.508-4.114 16.481-1.64 33.196-1.904 49.41-4.912 10.556-1.958 21.053-2.436 31.577-3.646 17.075-1.964 33.99-5.36 51.078-7.152 9.892-1.037 19.74-1.324 29.576-3.638 7.54-1.773 15.747-1.69 23.5.583 4.363 11.192 6.056 22.055 7.075 33.388 1.419 15.774 5.195 31.32 7.377 47.044 3.184 22.947 5.516 46.014 8.826 68.94 3.308 22.909 7.5 45.688 11.05 68.564 1.726 11.115 2.889 22.317 4.272 33.485 1.628 13.147 3.06 26.32 4.868 39.443 2.255 16.376 4.925 32.694 7.193 49.068 1.816 13.12 3.059 26.322 4.995 39.423 2.03 13.735 4.859 27.353 6.843 41.094 3.217 22.277 5.856 44.638 9.078 66.915 1.988 13.74 4.953 27.34 6.856 41.089 3.176 22.948 5.521 46.014 8.83 68.941 3.308 22.91 7.498 45.69 11.047 68.568 1.725 11.116 2.943 22.313 4.257 33.49 1.704 14.473 2.887 29.018 4.99 43.43 3.343 22.902 7.358 45.705 10.905 68.578a2750.345 2750.345 0 017.409 51.045c1.783 13.124 3.12 26.31 4.84 39.443a2009.247 2009.247 0 005.543 39.321c1.976 13.081 4.457 26.09 6.23 39.196 3.104 22.96 5.8 45.973 8.744 68.954 1.092 8.524 2.418 17.017 3.613 25.528 2.038 14.52 7.66 20.206 22.195 19.627 17.863-.713 35.8-1.839 53.477-4.382 22.959-3.303 45.805-7.208 69.052-7.863 1.316-.037 2.618-.464 3.933-.666 15.033-2.3 30.02-5 45.114-6.775 16.443-1.934 33.18-1.919 49.425-4.806 12.49-2.22 25.008-2.939 37.5-4.446 17.724-2.138 35.385-4.794 53.11-6.916 15.126-1.81 30.339-2.913 45.452-4.814 16.396-2.062 32.697-4.883 49.087-7.003 13.13-1.699 26.306-3.539 39.508-3.997 9.432-.327 18.47-1.77 27.478-4.156 10.2-2.701 11.657-4.781 12.61-14.811 1.727-18.163-3.53-35.627-5.294-53.416-2.282-22.992-7.117-45.726-10.665-68.6a2743.512 2743.512 0 01-7.404-51.045c-1.783-13.125-3.13-26.308-4.848-39.442a2003.816 2003.816 0 00-5.524-39.325c-1.975-13.081-4.47-26.088-6.244-39.194-3.107-22.96-5.506-46.02-8.817-68.948-3.309-22.91-7.5-45.69-11.05-68.567-1.724-11.115-2.884-22.318-4.268-33.486-1.629-13.146-2.927-26.341-4.897-39.436-3.444-22.89-7.39-45.704-10.935-68.58a2752.399 2752.399 0 01-7.4-51.046c-1.783-13.125-3.133-26.309-4.852-39.444a1999.78 1999.78 0 00-5.524-39.324c-1.976-13.08-4.474-26.087-6.247-39.193-3.106-22.958-5.501-46.016-8.81-68.944-3.308-22.908-7.5-45.688-11.05-68.564-1.725-11.115-2.888-22.318-4.271-33.485-1.629-13.146-3.06-26.319-4.867-39.44-2.256-16.376-4.927-32.694-7.195-49.068-1.816-13.12-3.044-26.325-4.998-39.422-1.95-13.075-4.76-26.025-6.564-39.116-.483-3.507 1.335-7.33 2.18-11.408 8.34-.421 15.735-.055 22.851-1.293 21.56-3.75 43.159-6.885 65.056-7.716 2.627-.1 5.223-.897 7.847-1.273 15.06-2.158 30.086-4.626 45.197-6.335 16.453-1.862 33.097-2.262 49.46-4.656 21.63-3.163 43.116-7.203 65.054-7.713 2.63-.062 5.243-.778 7.868-1.16 15.054-2.19 30.05-5.518 45.177-6.294 24.56-1.26 48.616-6.085 72.984-8.553 9.936-1.007 15.572-7.441 15.725-17.276.072-4.587-.919-9.205-1.601-13.782-.586-3.925-1.653-7.787-2.1-11.723-1.644-14.478-2.56-29.062-4.78-43.447-4.037-26.156-9.256-52.118-11.704-78.529-1.036-11.18-3.361-22.241-5.062-33.362-2.2-14.384-4.488-28.756-6.502-43.166-1.834-13.117-3.129-26.311-5.071-39.41-2.037-13.735-4.845-27.357-6.794-41.102-1.953-13.768-2.964-27.669-4.916-41.436-3.53-24.883-7.602-49.689-11.163-74.567-3-20.961-5.472-41.998-8.431-62.966-1.234-8.74-7.265-14.47-16.12-14.788-7.255-.26-14.604.39-21.827 1.298-15.09 1.897-30.087 4.577-45.195 6.293-16.453 1.87-33.113 2.193-49.46 4.667-22.282 3.372-44.466 7.166-67.053 7.797-1.967.055-3.907.755-5.878 1.024-16.382 2.239-32.74 4.684-49.161 6.594-15.791 1.837-31.75 2.428-47.45 4.799-20.96 3.164-41.792 7.067-63.072 7.46-2.638.05-5.269.635-7.895 1.024-15.047 2.229-30.046 4.859-45.147 6.608-16.448 1.906-33.01 2.795-49.483 4.514-12.505 1.304-24.945 3.231-37.418 4.847-17.708 2.293-35.405 4.688-53.136 6.788-15.13 1.792-30.33 3.003-45.447 4.884-17.058 2.122-34.047 4.787-51.087 7.062-11.15 1.489-22.306 3.339-33.516 3.902-19.901 1-39.425 4.492-59.078 7.294-15.73 2.242-31.628 3.286-47.444 4.929-15.156 1.574-30.327 3.037-45.446 4.908-17.056 2.112-34.048 4.735-51.1 6.869-3.232.404-6.62-.44-9.934-.709M2773.3 3040.624c-.143-8.13-.286-16.258 1.204-26.78 3.087-11.597 3.087-11.597 14.3-7.246 5.314 8.802 10.63 17.605 16.91 29.154 8.823 12.063 17.645 24.126 27.076 38.86 13.728 20.203 27.422 40.43 41.21 60.592 3.356 4.906 6.509 10.128 10.715 14.218 3.1 3.015 7.68 6.05 11.742 6.255 14.502.727 29.068.388 43.605.143 4.326-.072 7.52-2.906 8.626-7.017 1-3.717 1.59-7.719 1.4-11.548-.523-10.527-1.777-21.016-2.318-31.543-.711-13.845-1.018-27.712-.6-45.087-.294-10.822-.588-21.644.006-35.986-.111-10.842-.223-21.683.552-36.071-.198-12.147-.396-24.294.215-40.065.522-14.813 1.044-29.626 2.919-47.013.135-3.936.673-7.907.326-11.8-.954-10.716-5.534-16.273-15.752-16.67-18.273-.706-36.614-1.4-54.931.302-5.911 10.519-4.147 20.824-3.07 34.697.314 14.725.628 29.45.05 47.714.324 12.133.648 24.266.016 39.861-.41 8.406-.821 16.81-3.437 25.308-.732-.075-1.464-.15-3.256-2.686-3.802-6.053-7.604-12.107-11.672-20.889-5.481-10.352-9.965-21.352-19.672-32.024-6.87-9.72-13.74-19.44-21.265-31.68-7.346-9.898-14.691-19.796-22.722-32.383-4.453-6.57-8.778-13.232-13.4-19.68-3.566-4.974-8.187-8.459-14.558-9.414-8.061-1.209-51.11-.208-61.157 1.71-4.435 4.64-5.51 10.392-4.877 16.495.614 5.905 1.647 11.766 2.039 21.19.335 9.509.67 19.018.407 31.999.361 8.189.723 16.378.51 28.212.497 14.804.993 29.609.773 47.858.279 8.178.557 16.357-.009 28.151.211 18.621.423 37.242-.158 59.518v43.768c12.317 7.756 25.909 2.4 38.694 3.917 10.405 1.235 21.175 1.066 31.456-5.299.638-3.435 2.005-7.244 1.934-11.027a1605.917 1605.917 0 00-1.716-49.552c-.224-4.513-1.623-8.967-1.779-16.906-.446-9.401-.893-18.803-.336-31.557m-802.22-29.198c.267 8.188.532 16.376-.012 28.142.737 12.177 1.475 24.355 1.842 39.619.67 3.92 1.428 7.828 1.994 11.764 4.223 29.363 21.283 47.711 48.905 56.922a152.99 152.99 0 0015.311 4.26c24.769 5.478 49.919 7.23 75.175 6.138 19.256-.833 38.361-3.426 56.11-11.811 29.74-14.05 46.165-36.77 46.963-73.447.34-13.612.679-27.224 2.02-44.451.008-17.488.015-34.976.89-56.074-.223-14.805-.446-29.611.12-48.058-.274-13.248-.1-26.526-.987-39.733-.55-8.185-4.702-11.986-12.932-12.265-13.903-.47-27.862-.649-41.747.058-11.23.572-16.888 6.357-17.414 17.76-.578 12.526.166 25.113-.31 41.328.429 14.826.857 29.65.561 47.88-.865 11.73-1.94 23.452-2.506 35.198-.28 5.815.375 11.675-.08 21.055-.58 11.995-1.162 23.99-3.714 37.841-11.132 19.012-29.204 22.755-49.238 22.825-19.335.067-34.852-6.053-43.489-27.908-1.718-10.806-3.436-21.61-4.52-35.875-.359-8.175-.718-16.35-.286-28.007-.268-9.496-.536-18.993-.003-31.973-.266-9.5-.532-19-.023-31.932-.207-8.181-.414-16.363.193-27.824.747-8.54 1.72-17.07 2.176-25.625.47-8.797-3.556-14.192-12.416-14.597-16.464-.754-32.98-.694-49.468-.441-7.024.107-11.29 3.715-12.097 10.749-1.263 11.02-5.576 21.916-2.883 36.367.832 8.22 1.664 16.44 1.887 28.18.262 9.499.525 18.997.048 31.993.24 9.502.48 19.003-.07 31.942m1021.72 39.965c.22 10.668.44 21.336-.104 35.756-.062 13.934-.165 27.87-.17 41.804-.004 7.98.25 15.933 5.765 22.122 8.227 4.677 16.9 4.454 25.54 4.453 23.224-.003 46.45.076 69.675-.02 28.144-.117 55.412-5.309 81.65-15.348 7.333-2.806 14.658-6.488 20.854-11.244 18.084-13.882 30.787-32.103 41.972-54.966 6.68-15.944 11.655-32.2 9.975-53.38-.423-14.939 2.282-30.202-4.397-47.333-5.43-11.05-10.862-22.1-16.796-35.761-6.476-12.206-17.153-20.503-28.452-31.698-28.004-22.484-60.629-32.212-95.88-33.313-27.168-.849-54.382-.188-81.576-.164-3.312.003-6.659-.048-9.929.386-11.201 1.486-16.99 6.706-17.978 17.733-.641 7.161.435 14.477.1 25.177.176 8.168.352 16.336-.274 28.036.285 10.836.57 21.671.241 36.06.146 10.806.293 21.611-.254 35.748.243 10.808.487 21.615.038 35.952m290.872.088c.25 8.182.5 16.364-.017 28.193-1.048 19.76 1.191 39.596-2.382 59.341-1.922 10.621 3.309 16.078 14.416 16.372 15.195.402 30.41.315 45.61.062 11.14-.185 14.493-3.081 14.562-14.027.137-21.787-.473-43.58.032-68.797-.26-8.186-.52-16.373.02-28.091-.274-10.815-.549-21.63.003-35.968-.258-10.817-.517-21.635.038-36.105-.288-17.421-.577-34.843-.035-55.813-.058-9.322.414-18.684-.314-27.953-.812-10.344-6.37-15.706-16.778-16.164-12.632-.557-25.317-.536-37.957-.116-12.72.423-19.838 7.076-19.91 20.035-.058 10.533 2.133 21.08 2.824 35.06-.661 8.476-1.256 16.96-2.003 25.429-.687 7.783-2.536 15.585.104 26.312.839 10.932 1.677 21.865 1.824 36.344.231 10.814.463 21.628-.037 35.886m588.089-75.872c.262 10.823.524 21.645.146 36.077.071 13.445.143 26.89-.604 44.003-.339 27.125-.698 54.25-.984 81.375a43.47 43.47 0 00.658 7.895c1.068 6.11 4.497 10.24 10.317 10.206 16.508-.098 33.088-.14 49.493-1.722 11.135-1.074 13.158-4.237 13.025-15.935-.314-27.778-1.154-55.549-1.807-83.322-.015-.642-.33-1.278.68-5.442.066-13.534.132-27.068 1.059-44.161-.147-12.16-.294-24.32.63-39.173 1.712-9.547 5.459-18.091 15.8-25.392 8.533-.585 17.097-.887 25.587-1.848 6.265-.709 9.64-4.16 9.859-10.386.275-7.87-.335-15.77.128-26.98-.052-4.624.276-9.29-.235-13.863-.996-8.904-4.857-12.466-14.048-13.652-1.958-.253-3.958-.244-5.939-.256-44.962-.274-89.923-.69-134.885-.72-17.731-.012-21.838 4.254-22.832 22.259-.173 3.122 1.161 6.327 1.194 13.034.19 6.487-.026 13.02.685 19.45.71 6.43 3.725 9.193 10.306 9.45 10.39.406 20.802.203 32.532 3.033 9.653 8.924 8.078 21.135 9.235 36.07m420.826 52.94c-.253-10.84-.505-21.681.058-35.842.877-15.127-2.964-28.813-12.666-43.614-5.623-12.594-10.776-25.511-24.246-35.97-10.377-10.602-21.19-20.608-37.21-28.097-32.59-16.748-67.07-19.038-102.26-11.972-14.701 2.952-29.737 6.756-43.043 19.73-8.244 6.854-17.476 12.714-24.928 23.982-7.76 7.664-14.202 16.21-19.785 28.454-5.28 9.781-10.792 19.473-13.432 33.793-4.335 13.444-4.804 27.154-3.45 44.512.187 5.32-.201 10.736.681 15.938 1.865 11 1.473 22.628 8.272 35.26 2.464 4.708 4.719 9.54 7.425 14.104 23.664 39.913 59.4 61.54 104.647 68.199 33.39 4.913 64.607-2.116 94.362-17.72 25.202-13.216 44.225-34.972 55.749-65.056 4.71-13.7 10.274-27.22 9.826-45.701m-691.974-42.827c-3.078 14.057-6.156 28.113-10.972 44.597-2.94 12.58-5.878 25.16-10.092 40.657-4.08 20.872-8.178 41.74-12.214 62.621-.502 2.596-1.065 5.28-.906 7.882.297 4.89 2.149 9.138 7.2 10.943 3.1 1.108 6.308 2.42 9.525 2.596 7.96.433 15.954.297 23.935.331 8.53.038 17.063.009 24.951.009 5.631-5.898 6.416-12.565 8.085-18.951 4.585-17.546 10.556-23.047 29.103-24.418 14.56-1.076 29.258-.17 43.848-.981 12.196-.679 18.349 5.547 22.029 16.057 2.41 6.886 5.127 13.674 7.917 20.42 1.919 4.64 5.67 7.892 10.568 8.024 15.937.431 31.894.557 47.833.243 5.488-.109 9.651-4.697 10.612-10.308.553-3.23 1.03-6.774.286-9.875-5.416-22.554-11.153-45.032-16.465-70.635-3.527-12.502-7.054-25.004-10.462-40.855-3.213-14.68-6.426-29.36-9.261-47.128-3.76-12.42-7.518-24.839-11.105-40.298-2.786-8.317-5.57-16.634-8.347-28.044-1.63-5.744-2.966-11.592-4.948-17.212-4.483-12.71-13.527-19.323-27.164-19.327-25.285-.008-50.57.036-75.855-.05-13.069-.045-21.589 6.2-24.969 18.616-1.89 6.94-2.41 14.254-4.76 24.111-2.301 9.757-4.603 19.514-8.548 31.833-2.836 12.185-5.672 24.369-9.824 39.142m-1016.277-61.936c-.295 14.696-.59 29.392-1.374 47.804.696 17.518 1.392 35.037 1.458 56.16.221 13.447.443 26.894-.055 44.01-.646 22.62-1.232 45.243-1.965 67.861-.367 11.331 3.253 15.564 15.194 15.811 15.316.318 30.65.293 45.967-.01 10.026-.199 12.95-2.923 12.998-13.53.106-23.288-.486-46.58.085-73.467-.416-14.775-.831-29.55-.139-47.9-.223-16.164-.446-32.328.18-52.103-.27-14.799-.538-29.598-.043-47.99-.1-10.612.294-21.259-.442-31.826-.724-10.382-6.188-15.68-16.615-16.098-13.249-.532-26.535-.246-39.803-.081-8.34.103-13.707 4.912-16.136 12.444-1.382 4.285-1.859 9.107-1.6 13.622.414 7.246 1.776 14.438 2.29 25.293m-120.01 38.608c-5.02-6.784-5.172-14.323-.795-23.596 6.252-5.645 13.819-7.22 21.904-6.794 12.415.652 24.82 1.503 37.228 2.267 11.078.682 15.758-3.203 16.169-14.508.284-7.823-.437-15.682.242-26.439.61-10.311-5.009-16.09-14.223-18.797-4.405-1.294-9.067-2.351-13.62-2.386-17.896-.135-35.826-.422-53.683.518-13.925.733-27.554 4.095-40.123 10.527-6.385 3.266-13.573 5.7-19.301 14.46-10.1 12.35-15.762 26.143-14.339 45.722-.111 11.548-.401 23.136 7.773 35.762 6.87 14.465 17.676 25.238 32.682 35.726 14.235 11.177 28.47 22.354 43.876 36.146 6.043 7.117 7.91 15.295 4.349 26.376-7.821 12.342-20.015 14.486-33.095 13.539-9.248-.67-18.386-2.856-27.634-3.551-6.515-.49-13.245-.218-19.648.965-2.434.45-5.963 4.357-6.02 6.76-.367 15.208-.135 30.444.425 45.651.184 4.99 3.86 8.731 8.517 10.106 6.956 2.054 14.115 3.95 21.303 4.56 10.56.897 21.22.646 31.838.803 20.274.3 39.476-4.568 57.876-12.66 30.117-13.243 42.313-33.214 42.564-70.798-.217-9.8.868-19.814-4.544-31.606-5.702-15.231-14.69-27.938-29.554-39.405-16.387-12.254-32.775-24.51-50.168-39.348m-642.826 61.33c-.046 12.14-.093 24.278-.927 40.073-.152 23.797-.314 47.594-.446 71.391-.015 2.643-.087 5.314.242 7.925.974 7.744 4.997 12.06 12.988 12.197 13.871.24 27.78.08 41.624-.736 5.664-.334 11.2-2.81 17.573-4.521 2.566-30.812-.9-60.4-.3-93.542-.165-12.155-.33-24.31.599-39.976.046-16.076.092-32.152 1.755-50.868 2.083-6.697 4.165-13.394 9.175-21.538 5.94-5.086 13.135-5.595 20.4-5.243 19.483.944 22.344-3.774 22.109-22.983-.048-3.848-1.097-7.684-.493-14.55.917-8.664.201-17.017-4.88-26.085-6.74-.728-13.824-2.083-20.923-2.163-40.355-.456-80.714-.61-121.072-.857-3.97-.024-7.95-.167-11.907.069-12.94.77-18.126 5.617-18.8 18.024-.248 4.571.514 9.197.201 17.221.225 6.518-.038 13.1.813 19.534.806 6.088 4.494 8.99 10.681 9.456 4.557.343 9.16.348 13.73.166 7.284-.291 14.342.325 22.169 6.729 5.84 7.347 4.504 16.276 4.968 27.759.18 9.82.276 19.644.57 29.462.195 6.514.673 13.02.151 23.056m1570.606-52.396c-3.056 14.792-5.746 29.61-3.807 48.144.082 16.904 2.291 33.396 10.065 51.887 8.274 24.319 25.8 40.702 45.355 56.366 29.372 23.528 62.818 29.999 98.893 28.442 10.998-.475 15.75-5.069 16.623-15.857.694-8.578.363-17.243.415-25.869.135-22.56-1.334-24.195-23.72-21.236-10.353 1.369-19.608-1.15-29.112-4.268-9.512-3.12-17.435-8.072-23.214-16.42-1.452-2.099-3.906-3.504-6.955-7.953-11.693-14.022-15.018-31.107-16.999-51.854-1.588-15.713 3.399-30.208 10.465-46.282 7.066-14.85 20.362-22.723 37.186-30.294 9.025-2.226 18.013-4.875 27.478-3.373 3.932.623 7.793 1.756 11.737 2.229 8.104.97 12.867-2.714 13.086-10.97.245-9.275-.448-18.575.055-31.018.387-6.104-.115-11.966-4.69-16.665-4.66-4.786-10.821-4.61-16.737-4.7-9.28-.14-18.642-.599-27.832.375-17.766 1.882-35.356 4.927-53.393 15.876-6.734 3.89-13.703 7.431-20.146 11.754-9.684 6.498-19.095 13.45-26.515 26.245-8.765 12.86-15.607 26.499-18.238 45.441m1264.311-190.816c-.183-19.13 1.376-38.326-1.252-57.366-2.609-.926-4.431-2.136-6.254-2.139-87.184-.11-174.367-.126-261.55-.056-1.841.001-3.68 1.125-5.673 1.775-.695 1.985-1.876 3.796-1.879 5.609-.034 19.286.119 38.572.596 60.44-.14 4.337-.28 8.674-.597 16.994.244 15.433.487 30.867.108 49.96.256 18.688.512 37.375.248 59.31-.244 75.142-.51 150.285-.674 225.428-.01 4.393.785 8.788 1.175 12.857 20.03 2.442 197.773 3.508 264.467 1.708 3.184-.086 6.354-.698 10.694-1.2.267-7.287.718-13.77.708-20.253-.111-67.83-.274-135.658-.49-203.487-.027-8.633-.443-17.265.299-29.563-.267-38.779-.535-77.558.074-120.017z"/><path fill="#110C0D" d="M2283.91 1864.095c-.394 13.605 3.978 26.337 8.525 38.697 12.205 33.175 26.882 65.322 48.058 93.847 32.11 43.25 70.633 79.342 119.459 103.468 20.292 10.028 40.26 20.723 62.243 26.837 15.348 4.269 30.961 6.873 46.654 9.584 19.891 3.437 39.683 3.667 59.595 3.38 30.67-.443 60.511-5.788 89.953-14.622 28.945-8.684 56.04-20.973 81.297-37.336 8.884-5.755 17.642-12.009 25.342-19.225 15.07-14.124 30.14-28.398 43.737-43.902 12.514-14.27 24.298-29.443 32.99-47.749-8.49-1.804-15.664-1.085-22.842-.134-7.858 1.04-15.72 2.05-23.571 3.134-17.032 2.352-34.03 4.972-51.096 7.052-15.784 1.923-31.64 3.257-47.459 4.901-15.16 1.575-30.35 2.92-45.457 4.91-14.411 1.9-28.692 4.787-43.103 6.696-10.708 1.42-18.243-4.124-19.986-14.852-3.078-18.94-5.496-37.989-8.3-56.975-2.03-13.745-4.31-27.453-6.347-41.197-1.941-13.097-3.811-26.206-5.53-39.333-1.719-13.138-2.793-26.373-4.907-39.443-2.854-17.64-6.363-35.144-7.397-53.07-.61-10.546-2.421-21.045-4.091-31.502-2.086-13.06-4.69-26.035-6.837-39.086-.644-3.913-.896-7.978-.65-11.93.537-8.622 6.36-14.925 15-15.967 13.807-1.665 27.691-2.687 41.49-4.409 17.06-2.129 34.067-4.683 51.093-7.077 11.147-1.568 22.354-1.489 33.59-3.782 16.137-3.295 32.91-3.417 49.392-5.099 11.193-1.143 22.364-2.525 33.518-4.002 17.044-2.258 34.068-4.676 51.096-7.051 11.808-1.647 23.676-1.588 35.57-4.077 16.104-3.37 32.922-3.255 49.406-4.903a1190.017 1190.017 0 0039.477-4.624c16.385-2.194 32.672-5.271 49.107-6.874 9.916-.967 19.7-2.072 29.559-3.686 16.307-2.668 32.961-3.171 49.448-4.805 11.857-1.175 23.704-2.526 35.512-4.118 16.384-2.21 32.695-4.965 49.095-7.028 15.117-1.902 30.333-3.002 45.463-4.814 17.727-2.122 35.404-4.672 53.112-6.957 10.506-1.356 21.012-2.752 31.551-3.788 19.125-1.88 38.247-4.122 57.425-5.018 12.928-.604 17.875 4.308 19.842 17.215 2.991 19.627 5.332 39.353 8.327 58.98 3.492 22.89 7.895 45.65 10.95 68.592 2.361 17.722 3.473 35.625 4.715 53.477.69 9.92-.245 19.852 3.04 29.658 1.626 4.853.895 10.558.91 15.878.07 25.332.212 50.667-.084 75.996-.085 7.234-1.534 14.454-2.391 21.677-.392 3.293-1.123 6.565-1.265 9.866-2.456 57.32-14.527 112.889-29.8 167.964-14.294 51.543-34.807 100.564-60.153 147.44-19.59 36.23-41.93 70.877-66.891 103.784-33.856 44.635-71.504 85.857-112.445 123.955-20.86 19.412-43.933 36.351-66.807 53.436-39.069 29.183-81.076 53.498-125.104 74.023-33.67 15.697-68.375 28.973-104.296 39.36-35.122 10.157-70.699 17.934-106.348 25.555-12.906 2.76-26.565 2.176-39.35 5.292-22.166 5.404-45.196.85-67.185 7.084-3.73 1.058-7.951.477-11.946.484-19.333.038-38.67.247-57.996-.097-7.235-.128-14.445-1.601-21.67-2.433-3.954-.455-7.909-.937-11.876-1.258-18.5-1.5-37.133-2.047-55.473-4.66-19.64-2.796-39.108-7.064-58.465-11.504-32.367-7.423-64.462-15.817-95.763-27.18-40.709-14.779-80.65-31.285-118.646-52.083-46.685-25.554-91.333-54.507-133.27-87.196-24.558-19.143-49.257-38.436-70.67-61.389-9.545-10.23-19.533-20.071-29.688-29.7-28.588-27.11-52.436-58.211-75.875-89.644-30.682-41.149-56.994-84.991-80.44-132.293-2.45-6.288-3.844-11.435-6.036-16.214-34.36-74.896-56.814-153.31-70.579-234.45-8.822-52.005-13.948-104.357-13.905-156.982.153-185.864 55.495-353.621 167.16-502.552 35.25-47.013 73.78-90.983 117.25-130.654 96.413-87.99 207.88-147.761 334.446-179.343 55.015-13.727 110.85-21.657 167.508-25.527 43.44-2.968 86.663-1.962 129.66 2.478 101.64 10.495 198.235 38.765 289.206 85.922 52.23 27.075 101.092 59.192 147.735 94.866 1.587 1.214 3.193 2.411 4.694 3.726 10.247 8.98 11.16 14.853 2.597 25.51-18.356 22.845-37.097 45.38-55.683 68.04-67.164 81.881-134.336 163.757-201.461 245.671-2.087 2.547-3.693 5.489-5.156 9.657.366 1.41.557 1.42-.522.762-1.736-.216-2.392.226-4.193 1.247-4.371 5.463-7.598 10.347-10.825 15.23-7.424 9.305-15.113 18.413-22.19 27.975-6.05 8.173-14.191 8.974-25.208 6.8-36.57-31.123-76.252-50.616-121.09-58.54-51.215-9.051-102.587-6.32-152.58 6.589-120.647 31.153-195.872 110.986-234.093 227.118-17.4 52.866-16.213 107.597-6.935 162.088.94 5.522.197 12.327 6.13 16.233m-4.895-204.194c18.696-49.937 47.653-93.167 85.334-130.718 2.78-2.77 5.175-5.927 10.313-9.761 37.203-33.403 79.849-57.046 127.935-70.648 38.634-10.928 78.268-14.928 118.266-14.706 15.888.089 31.9 1.491 47.619 3.863 42.173 6.362 80.001 23.58 114.67 48.095 5.907 4.176 11.857 8.288 19.552 13.663 1.883-2.887 3.155-5.277 4.83-7.338 12.156-14.954 23.742-30.442 36.787-44.582 12.984-14.076 20.443-32.492 35.898-44.465 1.478-10.248 13.833-12.082 18.896-22.877 27.46-33.439 54.967-66.838 82.35-100.34 8.412-10.292 16.483-20.865 26.82-32.766 32.839-40.152 65.684-80.297 98.46-120.5.74-.91.668-2.48.971-3.742-12.53-12.694-39.194-32.5-60.252-45.921-38.592-26.366-79.183-49.212-121.538-68.94-87.29-40.656-179.031-64.717-275.02-71.233-68.676-4.661-137.11-1.044-205.163 10.452-99.673 16.836-193.133 50.136-279.346 103.096-14.657 9.003-28.353 19.57-45.101 30.13-60.4 43.027-112.91 94.355-159.625 151.77-1.652 2.032-2.843 4.44-6.234 8.215-27.827 34.635-53.178 70.984-75.457 109.437-3.286 5.67-5.845 11.76-10.892 19.301-12.888 26.934-26.61 53.51-38.386 80.922-8.596 20.009-14.629 41.119-23.196 64.52-3.223 10.723-6.881 21.339-9.59 32.19-8.612 34.519-17.2 69.065-20.672 107.803-1.157 11.27-2.646 22.516-3.412 33.811-2.8 41.242-3.883 82.503-.87 127.417 2.607 25.641 4.202 51.437 8.093 76.882 4.283 28.018 10.676 55.712 16.124 86.916 11.042 45.89 24.84 90.909 42.995 134.517 3.28 7.876 7.378 15.41 11.378 25.871 27.078 61.587 61.902 118.515 103.224 171.525 1.585 2.033 3.726 3.631 6.585 8.162 16.058 18.682 31.268 38.18 48.324 55.903 65.998 68.583 140.228 126.654 223.472 173.13 105.694 59.008 218.72 93.736 339.49 101.85 74.073 4.978 147.666-.203 220.755-14.074 170.037-32.27 313.067-112.594 430.195-239.63 2.709-2.939 6.374-5.52 7.823-9.005 6.552-15.758 21.006-25.07 31.061-37.939 9.696-12.407 20.458-24.04 30.883-38.914 43.12-60.133 76.73-125.21 100.934-195.103 4.093-11.817 6.826-24.105 12.23-38.365 15.016-52.403 23.925-105.91 28.022-160.189 1.342-17.782.784-35.707 1.966-57.23-.492-25.127-.184-50.303-1.715-75.366-1.327-21.721-4.739-43.315-6.727-68.296-5.762-41.56-11.448-83.132-17.423-124.662-.524-3.64-2.956-7.004-4.468-10.42-66.46 7.78-131.968 15.383-197.46 23.137-65.492 7.754-130.968 15.654-196.45 23.5-65.481 7.847-130.887 16.404-196.46 23.392-90.807 9.677-181.298 20.96-196.224 25.874-.459 14.47 2.724 28.667 5.332 46.5 2.418 16.91 4.754 33.83 7.27 50.724 4.257 28.57 8.626 57.123 12.653 89.193 5.149 36.27 10.25 72.546 15.503 108.8.724 5 2.21 9.889 3.569 15.81 88.463-10.187 175.465-21.357 264.809-31.135-2.612 6.141-3.996 10.43-6.148 14.292-18.93 33.968-41.912 64.88-69.841 92.035-3.797 3.691-7.37 7.611-13.4 12.432-82.153 71.539-205.015 93.655-305.129 68.784-22.646-5.626-44.001-14.55-67.608-24.473-22.704-11.151-44.255-24.202-64.308-39.623-28.094-21.604-51.297-47.917-73.702-75.213-7.712-9.394-11.245-20.777-18.678-29.982-1.65-2.044-3.165-4.198-5.266-8.901-7.04-15.632-14.6-31.053-21.011-46.938-13.949-34.561-20.041-71.023-24.18-111.042-1.823-31.777-1.737-63.515 4.7-94.82 3.585-17.43 8.51-34.582 14.86-54.057z"/><path fill="#150C0D" d="M1638.514 2310.8c6.137 6.066 9.986 12.845 15.766 16.806 14.472 9.916 25.743 23.07 38.236 34.986 31.773 30.304 62.667 61.597 95.545 90.648 17.478 15.444 34.277 31.466 50.832 47.798 11.883 11.723 12.406 17.555 3.378 31.192-17.986 27.168-36.7 53.748-60.633 76.246-12.134 11.406-23.63 23.491-35.409 35.274-25.42 25.43-53.795 47.22-82.53 68.746-28.972 21.702-60.36 38.948-93.005 53.901-35.695 16.351-72.964 28.688-111.237 37.543-28.375 6.565-56.88 12.515-85.773 16.706-28.15 4.083-56.243 8.406-84.462 12.067-15.912 2.065-32.042.974-47.497 3.892-28.537 5.387-57.08 2.3-85.595 3.254-9.276.31-18.61.692-27.63-2.871-2.956-1.168-6.578-.866-9.895-.867-34.036-.012-67.14-7.342-100.285-13.581-22.747-4.281-44.967-11.33-67.494-16.852-5.105-1.251-10.504-1.3-17.46-1.93-2.961-5.496-7.514-6.52-11.985-8.175-18.732-6.934-37.555-13.682-55.98-21.373-74.933-31.282-143.144-73.906-206.862-123.923-75.53-59.29-140.899-128.133-194.586-207.895-59.088-87.784-99.562-183.625-123.55-286.502-13.33-57.169-21.562-115.042-25.422-173.727-2.9-44.105-2.085-88.005 1.938-131.779 8.041-87.494 29.005-171.947 64.507-252.497 50.99-115.692 123.425-216.224 216.912-301.148 96.068-87.268 207.698-145.865 333.865-176.796 64.32-15.768 129.419-25.413 195.69-25.484 62.835-.067 124.897 7.225 186.2 21.32 96.105 22.097 187.125 57.113 272.774 106.022 4.045 2.31 8.105 4.64 11.908 7.317 6.131 4.314 8.455 10.19 5.759 17.437a193.56 193.56 0 01-6.166 14.722c-56.322 120.015-112.69 240.01-169.033 360.016-9.91 21.107-19.707 42.266-29.643 63.36-1.98 4.204-3.963 8.504-6.646 12.259-4.454 6.235-11.009 7.552-17.58 3.514-5.089-3.126-9.733-6.98-14.54-10.56-41.71-31.06-87.308-53.756-138.724-63.442-32.223-6.069-64.597-7.616-97.434-4.115-33.394 3.56-65.725 10.525-96.796 23.15-46.604 18.938-85.912 47.993-118.312 86.385-30.806 36.504-55.402 76.603-69.877 122.445-11.976 37.925-15.9 76.775-13.584 116.394 2.579 44.133 10.568 87.13 24.868 129.052 37.135 108.866 137.579 180.937 237.76 196.75 46.462 7.336 92.827 6.71 139.367.564 45.118-5.96 89.159-15.762 131.245-33.384 34.793-14.568 66.416-33.988 92.316-61.807 6.343-6.813 11.784-14.456 17.895-21.496 8.848-10.193 15.468-11.01 25.379-1.968 20.676 18.863 40.933 38.186 61.319 57.366 23.783 22.377 47.492 44.833 71.315 67.169 2.89 2.709 6.282 4.881 10.851 7.871M328.69 1874.59c-.096 35.934-.5 71.871-.105 107.8.124 11.22 2.41 22.415 3.2 36.975 2.532 33.898 7.71 67.436 14.624 100.675 3.63 17.455 8.6 34.632 12.896 55.12 10.094 41.875 24.097 82.486 41.3 121.895 10.017 22.945 22.021 45.024 34.002 70.288 10.441 17.805 20.235 36.029 31.426 53.35 78.898 122.104 182.87 218.042 307.477 291.912 126.038 74.72 262.397 112.383 409.17 111.846 40.066-.146 79.852-3.034 119.59-8.02 49.596-6.222 98.938-13.713 147.694-24.837 90.545-20.659 171.971-59.754 243.195-119.715 34.23-28.817 66.722-59.494 96.217-93.073 16.634-18.937 30.874-39.975 47.82-62.203-4.464-3.315-8.545-5.767-11.938-8.952-49.075-46.082-98.048-92.273-147.093-138.388-2.393-2.25-5.217-4.043-9.188-8.523-58.686-55.264-117.357-110.544-176.1-165.746-3.185-2.993-6.985-5.33-10.317-7.836-1.89 1.746-3.032 2.518-3.81 3.562-30.38 40.756-70.549 68.606-117.471 86.484-82.045 31.26-166.74 45.557-254.596 35.243-17.134-2.012-34.325-5.006-50.94-9.556-17.251-4.725-34.28-10.902-50.58-18.272-15.1-6.828-31.686-11.404-43.823-23.843-8.486-1.229-12.253-9.8-18.679-12.871-14.713-7.03-22.352-21.858-36.063-29.56-1.64-.92-2.769-2.848-3.976-4.43-10.846-14.21-21.656-28.446-33.425-45.402-19.97-32.36-34.027-67.144-42.438-104.197-3.948-17.39-7.561-34.857-10.852-55.629-5.14-37.054-5.94-74.107-.033-111.167 1.353-8.491 2.578-17.003 5.438-28.096 11.945-45.922 32.386-87.667 61.415-125.219 2.81-3.634 5.144-7.636 9.76-12.913 37.198-46.592 83.37-80.912 139.275-101.962 22.372-8.424 45.676-13.314 72.595-18.144 41.79-5.945 83.423-5.73 124.887 2.91 50.298 10.483 95.342 32.357 136.573 62.591 5.27 3.865 10.58 7.675 16.476 11.949 3.016-5.785 5.632-10.38 7.865-15.153a163344.602 163344.602 0 0094.407-202.147c1.664-3.569 2.764-7.399 6.29-12.882 18.534-39.555 37.119-79.085 55.558-118.683 3.9-8.375 7.263-17 12.889-27.64 10.74-23.395 22.826-46.198 32.529-71.374-6.936-4.152-13.043-8.038-19.356-11.552-54.792-30.506-111.966-55.671-171.504-75.314-86.507-28.541-175.132-45.016-266.459-45.717-60.885-.467-120.874 7.16-180.143 20.406-124.392 27.801-235.697 82.175-332.535 165.454-4.98 4.284-9.39 9.232-16.56 14.815-45.25 41.065-85.284 86.762-120.909 136.36-2.29 3.186-4.046 6.756-8.083 11.801-29.115 41.041-53.886 84.601-75.265 130.112-1.932 4.113-3.078 8.596-6.456 15.13-17.143 39.08-32.088 78.91-42.468 123.43-5.16 24.749-11.31 49.345-15.196 74.293-3.678 23.607-4.98 47.585-8.207 74.616z"/><path fill="#0D0C0B" d="M3776.896 827.535c4.765-.173 8.152.672 11.384.268 17.052-2.134 34.044-4.757 51.1-6.869 15.12-1.871 30.29-3.334 45.446-4.908 15.816-1.643 31.715-2.687 47.444-4.93 19.653-2.8 39.177-6.293 59.078-7.293 11.21-.563 22.366-2.413 33.516-3.902 17.04-2.275 34.03-4.94 51.087-7.062 15.117-1.881 30.317-3.092 45.447-4.884 17.731-2.1 35.428-4.495 53.136-6.788 12.473-1.616 24.913-3.543 37.418-4.847 16.472-1.719 33.035-2.608 49.483-4.514 15.1-1.75 30.1-4.38 45.147-6.608 2.626-.39 5.257-.974 7.895-1.023 21.28-.394 42.112-4.297 63.073-7.461 15.699-2.37 31.658-2.962 47.449-4.799 16.42-1.91 32.779-4.355 49.161-6.594 1.97-.269 3.91-.97 5.878-1.024 22.587-.63 44.771-4.425 67.054-7.797 16.346-2.474 33.006-2.798 49.459-4.667 15.108-1.716 30.104-4.396 45.195-6.293 7.223-.908 14.572-1.558 21.827-1.298 8.855.318 14.886 6.047 16.12 14.788 2.96 20.968 5.43 42.005 8.43 62.966 3.562 24.878 7.635 49.684 11.164 74.567 1.952 13.767 2.963 27.668 4.916 41.436 1.949 13.745 4.757 27.367 6.794 41.101 1.942 13.1 3.237 26.294 5.07 39.41 2.015 14.41 4.303 28.783 6.503 43.167 1.701 11.12 4.026 22.181 5.062 33.362 2.448 26.411 7.667 52.373 11.704 78.529 2.22 14.385 3.136 28.969 4.78 43.447.447 3.936 1.514 7.798 2.1 11.723.682 4.577 1.673 9.195 1.6 13.782-.152 9.835-5.788 16.269-15.724 17.276-24.368 2.468-48.424 7.292-72.984 8.553-15.127.776-30.123 4.104-45.177 6.295-2.625.381-5.238 1.097-7.868 1.159-21.938.51-43.424 4.55-65.054 7.713-16.363 2.394-33.007 2.794-49.46 4.656-15.111 1.71-30.137 4.177-45.197 6.335-2.624.376-5.22 1.173-7.847 1.273-21.897.83-43.495 3.967-65.056 7.716-7.116 1.238-14.51.872-22.851 1.293-.845 4.077-2.663 7.9-2.18 11.408 1.803 13.091 4.614 26.04 6.564 39.116 1.954 13.097 3.182 26.301 4.998 39.422 2.268 16.374 4.939 32.692 7.195 49.068 1.807 13.12 3.238 26.294 4.867 39.44 1.383 11.167 2.546 22.37 4.271 33.485 3.55 22.876 7.742 45.656 11.05 68.564 3.309 22.928 5.704 45.986 8.81 68.944 1.773 13.106 4.271 26.113 6.247 39.193a1999.78 1999.78 0 015.524 39.324c1.719 13.135 3.07 26.319 4.852 39.444a2752.399 2752.399 0 007.4 51.046c3.546 22.876 7.491 45.69 10.935 68.58 1.97 13.095 3.268 26.29 4.897 39.436 1.384 11.168 2.544 22.37 4.269 33.486 3.55 22.877 7.74 45.657 11.049 68.567 3.311 22.929 5.71 45.988 8.817 68.948 1.774 13.106 4.27 26.113 6.244 39.194 1.977 13.088 3.807 26.2 5.524 39.325 1.718 13.134 3.065 26.317 4.848 39.442a2743.512 2743.512 0 007.404 51.045c3.548 22.874 8.383 45.608 10.665 68.6 1.765 17.79 7.02 35.253 5.295 53.416-.954 10.03-2.412 12.11-12.611 14.811-9.009 2.386-18.046 3.829-27.478 4.156-13.202.458-26.379 2.298-39.508 3.997-16.39 2.12-32.69 4.94-49.087 7.003-15.113 1.901-30.326 3.004-45.452 4.814-17.725 2.122-35.386 4.778-53.11 6.916-12.492 1.507-25.01 2.226-37.5 4.446-16.244 2.887-32.982 2.872-49.425 4.806-15.095 1.775-30.08 4.475-45.114 6.775-1.315.202-2.617.629-3.933.666-23.247.655-46.093 4.56-69.052 7.863-17.676 2.543-35.614 3.67-53.477 4.382-14.535.58-20.157-5.107-22.195-19.627-1.195-8.51-2.52-17.004-3.613-25.528-2.945-22.981-5.64-45.995-8.745-68.954-1.772-13.106-4.253-26.115-6.23-39.196a2009.247 2009.247 0 01-5.543-39.32c-1.72-13.135-3.056-26.32-4.839-39.444a2750.345 2750.345 0 00-7.41-51.045c-3.546-22.873-7.561-45.676-10.904-68.578-2.103-14.412-3.286-28.957-4.99-43.43-1.314-11.177-2.532-22.374-4.257-33.49-3.55-22.877-7.739-45.658-11.046-68.568-3.31-22.927-5.655-45.993-8.831-68.941-1.903-13.75-4.868-27.35-6.856-41.09-3.222-22.276-5.861-44.637-9.078-66.914-1.984-13.741-4.814-27.36-6.843-41.094-1.936-13.101-3.18-26.303-4.995-39.423-2.268-16.374-4.938-32.692-7.193-49.068-1.807-13.122-3.24-26.296-4.868-39.443-1.383-11.168-2.546-22.37-4.271-33.485-3.55-22.876-7.743-45.655-11.05-68.563-3.311-22.927-5.643-45.994-8.827-68.94-2.182-15.725-5.958-31.271-7.377-47.045-1.02-11.333-2.712-22.196-7.075-33.388-7.753-2.273-15.96-2.356-23.5-.583-9.836 2.314-19.684 2.6-29.576 3.638-17.088 1.792-34.003 5.188-51.078 7.152-10.524 1.21-21.02 1.688-31.576 3.646-16.215 3.008-32.93 3.273-49.411 4.912-11.856 1.18-23.7 2.526-35.508 4.114-16.38 2.204-32.691 4.944-49.087 7.007-15.114 1.903-30.325 3.028-45.452 4.835-17.726 2.118-35.4 4.657-53.112 6.891-4.61.582-9.274.964-13.916.994-15.023.098-20.705-4.647-22.855-18.988-1.472-9.815-2.871-19.645-4.066-29.497-1.596-13.147-2.644-26.368-4.515-39.473-1.868-13.086-4.702-26.033-6.668-39.107-1.968-13.096-3.25-26.293-5.082-39.41-2.014-14.41-4.319-28.781-6.486-43.17-1.775-11.782-3.797-23.533-5.237-35.356-1.842-15.122-3.182-30.305-4.829-45.452-.138-1.265-.966-2.454-2.716-4.776-1.247-9.02-.32-17.075-1.407-24.848-7.087-50.714-14.632-101.364-21.969-152.043-1.144-7.902-2.207-15.828-2.929-23.777-.993-10.937 2.753-16.719 13.388-18.52 13.755-2.33 27.697-3.567 41.562-5.24 41.6-5.022 83.194-10.104 124.807-15.016 38.975-4.6 77.978-8.96 116.957-13.525 33.692-3.946 67.377-7.957 101.038-12.159 3.86-.482 7.543-2.376 12.759-4.057m116 792.488c2.503 17.765 4.864 35.552 7.545 53.29 3.97 26.259 8.166 52.483 11.873 81.975 5.663 40.586 11.225 81.186 17.058 121.747 1.492 10.37 3.844 20.616 5.468 34.358 5.057 36.567 10.011 73.148 15.227 109.692 1.859 13.026 4.351 25.962 6.128 42.21 2.786 20.233 5.4 40.492 8.4 60.693 3.965 26.705 8.23 53.365 11.94 83.25 10.935 74.228 20.614 148.644 31.923 221.745 1.967 1.171 2.535 1.813 3.02 1.756 157.16-18.627 314.313-37.3 471.463-55.996.636-.076 1.293-.403 1.825-.777.49-.345.822-.911 2.068-2.364-.206-2.302-.36-5.523-.802-8.704-2.013-14.49-4.044-28.978-6.184-43.45-5.736-38.79-11.53-77.572-16.951-119.834-3.7-25.648-7.273-51.315-11.138-76.938-3.36-22.27-7.047-44.49-10.203-70.202-4.88-35.23-9.62-70.48-14.714-105.679-1.88-12.992-4.6-25.863-6.436-42.125-7.392-51.06-14.785-102.12-21.916-156.661-.794-5.201-1.61-10.399-2.378-15.603-5.946-40.31-11.883-80.62-17.562-124.41-3.595-24.984-7.051-49.99-10.84-74.944-2.286-15.06-5.09-30.04-7.204-48.454-7.378-51.07-14.756-102.141-21.897-156.73-2.055-13.785-4.314-27.544-6.046-41.369-.533-4.261.373-8.703.643-13.487 30.917-3.634 60.543-7.055 90.154-10.612 50.081-6.014 100.142-12.202 150.231-18.154 49.429-5.873 98.888-11.497 148.313-17.403 3.638-.435 7.111-2.262 11.801-3.82-2.426-15.461-4.673-29.787-6.658-47.571-2.43-17.021-4.724-34.064-7.324-51.059-3.897-25.475-8.01-50.917-11.604-79.658-4.777-33.92-9.474-67.852-14.384-101.754-1.313-9.069-3.274-18.044-4.633-30.53-7.575-54.05-15.106-108.108-22.82-162.14-.53-3.703-2.426-7.212-4.067-11.9-424.542 50.42-848.207 100.734-1271.865 151.109-3.167.377-6.235 1.584-10.13 2.61-.428 10.075.795 19.084 3.661 31.281 6.027 41.702 12.053 83.404 18.106 128.597 2.094 15.166 4.05 30.353 6.31 45.494 4.125 27.628 8.43 55.229 12.432 86.486 3.051 21.745 6.06 43.496 9.165 65.233 3.01 21.079 6.09 42.148 9.194 63.213 3.176 21.553 4.665 43.408 10.217 65.508 12.486-1.3 23.7-2.33 34.879-3.655 39.65-4.7 79.288-9.507 118.931-14.263 39.644-4.757 79.29-9.506 118.935-14.25 37.664-4.506 75.316-9.122 113.01-13.372 5.777-.652 11.747.409 17.588 4.171 5.335 38.138 10.543 76.294 16.076 114.403 1.799 12.39 4.445 24.659 6.375 40.41 6.023 41.687 12.047 83.374 17.797 128.637z"/><path fill="#E70B35" d="M2284.714 1863.013c-6.736-2.824-5.993-9.629-6.933-15.151-9.278-54.49-10.465-109.222 6.935-162.088 38.222-116.132 113.446-195.965 234.094-227.118 49.992-12.91 101.364-15.64 152.58-6.59 44.837 7.925 84.518 27.418 119.437 58.469-24.374 18.038-49.29 34.64-73.9 51.685-58.564 40.56-116.962 81.36-175.466 122.007-85.296 59.26-170.627 118.471-256.747 178.786z"/><path fill="#F7F7F6" d="M3795.534 3068.032c5.635 22.502 11.372 44.98 16.788 67.534.745 3.101.267 6.646-.286 9.875-.96 5.611-5.124 10.2-10.612 10.308-15.939.314-31.896.188-47.833-.243-4.897-.132-8.65-3.384-10.568-8.025-2.79-6.745-5.506-13.533-7.917-20.42-3.68-10.51-9.833-16.735-22.029-16.056-14.59.811-29.288-.095-43.848.981-18.547 1.37-24.518 6.872-29.103 24.418-1.67 6.386-2.454 13.053-8.085 18.95-7.888 0-16.42.03-24.951-.008-7.981-.034-15.974.102-23.935-.331-3.217-.176-6.425-1.488-9.525-2.596-5.051-1.805-6.903-6.053-7.2-10.943-.159-2.601.404-5.286.906-7.882 4.036-20.88 8.134-41.749 14.672-64.08 72.814-1.465 143.17-1.473 213.526-1.482z"/><path fill="#FAF9F9" d="M2048.5 3071.798c8.68 18.525 24.197 24.645 43.532 24.578 20.034-.07 38.106-3.813 52.139-23.66 15.478-.792 28.067-.409 40.63-.81 10.696-.343 21.059.782 31.207 4.094.563 33.689-15.863 56.409-45.603 70.459-17.748 8.385-36.853 10.978-56.11 11.811-25.255 1.092-50.405-.66-75.174-6.138a152.99 152.99 0 01-15.31-4.26c-27.623-9.21-44.683-27.559-48.906-56.922-.566-3.936-1.324-7.843-.021-13.313 14.988-1.581 28.015-1.955 41.017-1.543 11.171.355 21.985-.943 32.599-4.296zm2232.053 4.345c-9.315 28.188-28.338 49.944-53.54 63.16-29.755 15.604-60.972 22.633-94.362 17.72-45.247-6.658-80.983-28.286-104.647-68.199-2.706-4.564-4.961-9.396-5.852-15.502 12.337-4.62 23.302-5.715 34.548-5.402 13.137.366 26.292.051 40.66.693 5.583 5.317 9.116 11.591 14.46 14.335 18.573 9.534 38.564 12.61 59.326 9.086 8.597-1.459 16.346-4.933 22.955-10.706 3.447-3.011 6.776-6.158 12.014-9.245 15.039-.028 28.233.252 41.403-.177 11.302-.368 22.27.894 33.035 4.237zm-1044.736-.182c-9.019 20.85-21.722 39.07-39.806 52.952-6.196 4.756-13.521 8.438-20.854 11.244-26.238 10.039-53.506 15.23-81.65 15.347-23.225.097-46.45.018-69.676.02-8.638.002-17.312.225-25.54-4.452-5.515-6.189-5.768-14.142-5.765-22.122.006-13.935.109-27.87 2.598-43.492 25.026-1.337 47.688.052 71.084-5.043 7.08 8.369 15.892 9.633 24.382 10.736 26.777 3.48 51.753-.424 74.47-19.39 14.48.153 27.049.486 39.6.139 10.659-.295 21.047.577 31.157 4.061z"/><path fill="#A90A08" d="M4379.985 2801.783c.14-4.337.28-8.674 2.184-13.713 6.175-2.657 6.67-6.682 6.721-10.69.135-10.612-.146-21.232.174-31.836.112-3.724 1.493-7.41 2.207-10.708 17.044-2.608 189.054-3.9 241.596-1.91 3.168.12 6.31.916 10.646 1.578.256 7.218.477 13.696.714 20.174.363 9.912.737 19.823.893 31.523-.297 9.072-.144 16.367-.532 23.634-.362 6.804 1.366 14.018-2.543 21.829-10.875-9.926-20.539-18.747-30.668-28.817-8.898-9.74-17.081-18.498-25.833-26.645-8.612-8.017-15.36-18.317-27.671-23.879-5.723 4.531-11.372 9.005-17.542 12.74-.52-.739-2.002-1.772-1.968-3.182-2.272-3.433-4.29-6.25-6.976-7.218-2.025-.73-5.283.32-7.32 1.625-3.858 2.47-7.233 5.693-11.923 8.29-1.884-.388-2.653-.463-3.328-1.952-5.682-10.361-7.725-11.063-14.3-6.286-3.6 2.615-7.164 5.283-11.601 6.905-7.96-11.566-11.16-12.531-18.898-5.242-9.678 9.116-18.913 18.701-28.272 28.152-1.382 1.395-2.647 3.033-3.519 4.782-2.75 5.515-2 10.262 3.565 14.617-.184 2.22-.24 3.491-1.795 5.043-14.307-.903-24.605 3.416-33.025 13.103-2.683 3.087-5.162 8.187-12.32 5.241 0-6.035.156-12.524-.077-18.998-.092-2.562-.465-5.454-1.76-7.545-1.543-2.492-4.363-2.308-6.83-.615z"/><path fill="#F9F8F8" d="M2547.732 3076.013c.61 34.32-11.587 54.292-41.704 67.536-18.4 8.09-37.602 12.96-57.876 12.66-10.618-.158-21.278.093-31.838-.804-7.188-.61-14.347-2.506-21.303-4.56-4.657-1.375-8.333-5.116-8.517-10.106-.56-15.207-.792-30.443-.426-45.65.058-2.404 3.587-6.31 6.021-6.76 6.403-1.184 13.133-1.455 19.648-.966 9.248.695 18.386 2.88 27.634 3.55 13.08.948 25.274-1.196 35.993-14.36 26.056-.729 49.212-.634 72.368-.54zm929.971-8.726c1.995 1.723 4.45 3.128 5.901 5.226 5.78 8.349 13.702 13.3 23.214 16.42 9.504 3.119 18.76 5.638 29.112 4.27 22.386-2.96 23.855-1.324 23.72 21.235-.052 8.626.279 17.29-.415 25.869-.874 10.788-5.625 15.382-16.623 15.857-36.075 1.557-69.521-4.914-98.893-28.442-19.554-15.664-37.081-32.047-43.638-57.943 27.018-1.883 52.32-2.187 77.622-2.492z"/><path fill="#ECECEA" d="M4655.365 2904.19c.236 8.634.652 17.266.679 25.9.216 67.828.379 135.657.49 203.486.01 6.483-.441 12.966-.708 20.253-4.34.502-7.51 1.114-10.694 1.2-66.694 1.8-244.436.734-264.467-1.708-.39-4.069-1.185-8.464-1.175-12.857.165-75.143.43-150.286 3.594-226.674 4.696-1.004 6.47-.762 7.58 1.057-.706 10.752-.745 19.924-1.276 30.89-.098 17.921.296 34.049.21 51.99-.167 23.169.146 44.523-.025 67.723-.541 21.785-.627 41.725-.62 61.664 0 2.622-.26 5.675.952 7.734 1.006 1.71 4 2.248 7.967 3.567 78.78.324 155.704.417 232.628.37 4.334-.003 8.667-1.156 13.208-1.803 0-36.367 0-71.457.277-108.233.04-12.053-.196-22.422-.098-34.615.163-17.927-.008-34.029.19-51.872.294-10.035.22-18.33-.025-27.558-.817-2.152-1.825-2.846-4.073-3.62-1.289-1.189-1.702-1.769-.644-2.775a1912.35 1912.35 0 0116.03-4.118z"/><path fill="#F9F8F8" d="M2946.273 3064.142c.48 13.858.787 27.725 1.498 41.57.54 10.527 1.795 21.016 2.317 31.543.19 3.829-.399 7.831-1.399 11.548-1.105 4.11-4.3 6.945-8.626 7.017-14.537.245-29.103.584-43.605-.143-4.062-.204-8.643-3.24-11.742-6.255-4.206-4.09-7.36-9.312-10.715-14.218-13.788-20.162-27.482-40.389-40.119-62.548 9.158-6.892 17.736-8.958 27.36-8.798 28.338.47 56.686.24 85.03.284z"/><path fill="#F7F7F6" d="M3941.5 3052.267c.176.638.49 1.274.506 1.916.653 27.773 1.493 55.544 1.807 83.322.133 11.698-1.89 14.861-13.025 15.935-16.405 1.583-32.985 1.624-49.493 1.722-5.82.034-9.25-4.096-10.317-10.206a43.47 43.47 0 01-.658-7.895c.286-27.126.645-54.25 3.254-83.205 24.155-1.75 46.04-1.67 67.926-1.59z"/><path fill="#EFEDE9" d="M3795.696 3066.482c-70.518 1.559-140.874 1.567-213.05 1.575 1.118-12.58 4.057-25.161 9.778-38.918 25.146-1.136 47.51-1.095 70.272.47 1.055 11.154 7.296 15.757 15.85 16.784 7.139.857 14.5.343 21.727-.125 11.128-.721 16.373-7.308 18.586-18.163 23.343-.231 44.88-.456 66.417-.68 3.527 12.502 7.054 25.004 10.42 39.057z"/><path fill="#B4AB97" d="M2993.692 2912.14c-.307-7.246-1.383-14.562-.742-21.723.988-11.027 6.777-16.247 17.978-17.733 3.27-.434 6.617-.383 9.93-.386 27.193-.024 54.407-.685 81.574.164 35.252 1.101 67.877 10.83 94.815 34.536-12.6 4.648-24.382 5.129-36.36 5.092-55.73-.174-111.463 0-167.195.05z"/><path fill="#C5BEAD" d="M4379.896 2803.774c2.555-3.684 5.375-3.868 6.918-1.376 1.295 2.091 1.668 4.983 1.76 7.545.233 6.474.077 12.963.077 18.998 7.158 2.946 9.637-2.154 12.32-5.241 8.42-9.687 18.718-14.006 34.87-12.603 20.707.336 37.978.946 55.214.411 15.53-.481 30.512-.398 41.834 13.308 4.527-3.35 8.03-6.274 11.864-8.666 2.743-1.712 5.873-3.575 8.935-3.775 2.918-.19 6.608.987 8.73 2.915 1.348 1.223.453 4.918-.384 7.856-1.643 1.473-2.339 2.594-4.026 4.117-1.511 1.66-2.03 2.92-3.655 4.389-1.286 1.146-1.465 2.082-1.644 3.018 1.13-.85 2.262-1.7 4.416-2.758 1.72-1.357 2.416-2.505 4.108-3.924 1.672-1.418 2.347-2.565 4.36-4.255 8.105-6.987 8.105-6.987 6.407-16.128 2.904-3.1 4.198-5.232 6.72-6.641 5.915 5.238 12.23 8.606 12.338 15.946-12.242 14.304-24.231 28.312-37.103 42.53-.884.21-2.685.46-3.743-.492-4.719-7.192-10.568-10.329-17.399-10.656-9.222-.441-18.97-1.674-27.627.65-12.492 3.354-24.849 2.934-37.333 3.004-29.104.163-58.209.095-87.314.12-.244-15.433-.487-30.867-.643-48.292m145.994 31.702c-7.869.816-16.196-1.962-27.147 3.772 18.402 1.583 33.172 2.54 48.95-.65-6.304-4.731-12.443-2.494-21.803-3.122z"/><path fill="#FAF9F9" d="M1891.407 3060.063c.247 29.587 3.713 59.175 1.147 89.987-6.373 1.71-11.91 4.187-17.573 4.52-13.844.816-27.753.976-41.624.737-7.991-.137-12.014-4.453-12.988-12.197-.329-2.611-.257-5.282-.242-7.925.132-23.797.294-47.594 2.622-73.219 24.337-1.853 46.498-1.878 68.658-1.903z"/><path fill="#C1B9A8" d="M2993.371 2913.867c56.053-1.777 111.785-1.951 167.517-1.777 11.977.037 23.76-.444 36.946-3.9 11.778 8.78 22.455 17.077 27.36 30.579-22.214 1.274-42.875 1.77-63.488 1.002-9.437-.352-16.679 2.498-24.615 8.67-10.491-2.367-19.376-5.263-28.49-6.749-14.062-2.291-27.814-1.142-40.809 5.923-4.571-7.305-10.43-7.668-16.571-7.635-19.214.106-38.429.088-57.643.119-.176-8.169-.352-16.337-.207-26.232z"/><path fill="#FAF9F9" d="M2655.767 3072.018c.307 23.29.9 46.583.793 69.872-.048 10.606-2.972 13.33-12.998 13.529-15.318.303-30.65.328-45.967.01-11.941-.247-15.56-4.48-15.194-15.81.733-22.619 1.319-45.242 4.122-69.695 14.099-1.86 26.048-1.64 37.98-1.987 10.686-.31 21.14.424 31.264 4.081z"/><path fill="#C3BBA9" d="M4256.88 2915.607c12.324 7.972 17.477 20.89 21.32 34.933-17.07 1.453-32.37 1.812-47.644 1.331-9.611-.302-18.421 1.656-27.98 5.438-20.254-19.998-43.487-24.058-68.96-17.594-8.874 2.251-17.209 6.626-27.588 9.316-8.196-4.749-15.317-5.051-22.608-5.074-17.671-.056-35.341-.37-53.012-.58 3.683-10.403 10.126-18.95 20.758-26.976 10.94 2.986 19.334 3.721 28.034 3.688 48.208-.185 96.418-.259 144.624.037 11.341.07 22.303-1.063 33.057-4.52z"/><path fill="#BCB4A2" d="M2538.124 2896.236c.272 7.842.993 15.702.709 23.524-.41 11.305-5.09 15.19-16.169 14.508-12.409-.764-24.813-1.615-37.228-2.267-8.085-.426-15.652 1.15-25.158 7.445-27.48.64-51.704.628-75.93.617-1.985-16.277 3.677-30.07 16.822-43.18 47.682-.721 92.318-.684 136.954-.647z"/><path fill="#CEC2B5" d="M4655.854 2902.358c-5.342 3.063-10.195 4.294-17.54 5.687-5.428-1.627-8.366-3.417-11.72-6.586-6.632-7.95-12.957-14.42-19.032-21.12-7.967-8.786-17.362-13.732-29.596-12.69-5.88.5-11.83.165-18.304-.686-.905-1.503-1.255-2.112-.89-3.69 1.04-1.704 1.366-2.439 2.914-3.672 11.49-10.61 21.712-20.766 32.037-30.816 6.611-6.436 7.659-13.363 2.424-21.107-.73-1.08-1.253-2.3-.101-3.514 6.446-.062 11.121-.065 15.797-.068l30.202 27.568c3.91-7.811 2.18-15.025 2.543-21.83.388-7.266.235-14.56 1.808-23.69 4.041-1.882 6.593-1.918 9.145-1.955.267 38.78.535 77.558.313 118.17z"/><path fill="#D8D3C8" d="M2787.85 3004.061c-10.258-1.814-10.258-1.814-16.086 10.9-23.772 1.146-44.802 1.175-65.833 1.204-.496-14.804-.992-29.609.605-46.246 45.91-1.872 89.725-1.911 133.54-1.95 9.096 8.006 13.58 19.006 17.364 30.72-18.041 1.344-34.388 1.485-50.73 1.236-6.705-.102-12.984.88-18.86 4.136z"/><path fill="#BEB6A5" d="M1814.553 2940.522c-6.569-3.482-13.627-4.098-20.911-3.807-4.57.182-9.173.177-13.73-.166-6.187-.466-9.875-3.368-10.68-9.456-.852-6.434-.59-13.016 1.294-21.275 59.432-1.641 116.756-1.542 174.081-1.443.588 3.841 1.637 7.677 1.685 11.525.235 19.21-2.626 23.927-22.108 22.983-7.266-.352-14.461.157-22.341 4.271-3.753-6.418-8.224-7.094-13.027-7.1-19.098-.024-38.207-.365-57.29.17-5.693.16-11.317 2.797-16.973 4.298z"/><path fill="#FAF9F9" d="M3355.087 3076.05c.302 21.79.912 43.582.775 65.369-.069 10.946-3.422 13.842-14.561 14.027-15.2.253-30.416.34-45.61-.062-11.108-.294-16.339-5.75-14.417-16.372 3.573-19.745 1.334-39.58 4.608-61.163 24.553-1.814 46.88-1.806 69.205-1.799z"/><path fill="#BEB6A5" d="M3995.058 2904.125c.228 7.886.838 15.786.563 23.656-.219 6.226-3.594 9.677-9.859 10.386-8.49.961-17.054 1.263-28.897 1.331-7.087-1.5-10.863-3.328-14.639-3.33-27.008-.01-54.017.35-81.026.593-10.403-.055-20.816.148-31.205-.258-6.58-.257-9.596-3.02-10.306-9.45-.711-6.43-.495-12.963 1.521-21.243 59.42-1.756 116.634-1.72 173.848-1.685z"/><path fill="#B1A894" d="M3995.403 2902.463c-57.559 1.626-114.773 1.59-173.89 1.577-2.542-3.144-3.876-6.35-3.703-9.471.994-18.005 5.1-22.27 22.832-22.26 44.962.031 89.923.447 134.885.721 1.981.012 3.98.003 5.94.256 9.19 1.186 13.051 4.748 14.047 13.652.51 4.573.183 9.24-.11 15.525z"/><path fill="#FAF9F9" d="M2772.934 3075.639c.86 4.48 2.258 8.934 2.482 13.447a1605.917 1605.917 0 011.716 49.552c.071 3.783-1.296 7.592-1.934 11.027-10.281 6.365-21.05 6.534-31.456 5.3-12.785-1.517-26.377 3.838-38.694-3.918 0-14.826 0-29.297 1.18-46.918 1.908-10.77 2.635-18.389 3.473-27.189 21.717-2.038 42.541-.1 63.233-1.301z"/><path fill="#B1A894" d="M1945.203 2902.862c-57.92 1.414-115.245 1.315-174.37 1.245-2.102-4.572-2.864-9.198-2.615-13.769.673-12.407 5.859-17.253 18.799-18.024 3.956-.236 7.937-.093 11.907-.069 40.358.247 80.717.401 121.072.857 7.1.08 14.184 1.435 20.922 2.163 5.082 9.068 5.798 17.42 4.285 27.597z"/><path fill="#BAB29E" d="M4256.308 2914.363c-10.181 4.7-21.143 5.833-32.484 5.763-48.206-.296-96.416-.222-144.624-.037-8.7.033-17.093-.702-26.929-4.384 3.474-10.21 12.706-16.07 24.094-23.318 24.254-.392 45.364-.387 66.475-.387 21.111 0 42.222.015 63.332-.023 5.226-.01 10.74.642 14.143-4.81 14.228 5.345 25.042 15.351 35.993 27.196z"/><path fill="#C3BBA9" d="M3612.082 2944.014c2.301-9.756 4.603-19.513 9.37-30.633 46.718-1.469 90.97-1.575 135.22-1.682 2.786 8.317 5.571 16.634 6.551 26.74-9.235 5-17.012 5.773-25.046 5.625-11.237-.207-22.482-.007-33.724.09-5.712.048-8.034 3.689-10.274 8.402-5.106-.22-8.828-.094-14.205-.606-10.234-5.646-19.688-3.763-28.822-3.875-13.169-.162-26.385.588-39.07-4.06z"/><path fill="#B4AB97" d="M3756.677 2910.153c-44.256 1.653-88.507 1.76-134.618 1.873-.723-7.139-.202-14.452 1.687-21.393 3.38-12.415 11.9-18.661 24.969-18.617 25.285.087 50.57.043 75.855.05 13.637.005 22.681 6.618 27.164 19.328 1.982 5.62 3.318 11.468 4.943 18.759z"/><path fill="#EDEBE6" d="M2946.722 3062.384c-28.794 1.714-57.142 1.944-85.48 1.474-9.624-.16-18.202 1.906-27.664 7.463-10.218-11.443-19.04-23.506-26.468-37.265 10.547-5.503 20.104-6.389 29.932-6.113 9.063.255 18.144.005 27.216-.131 4.594-.07 7.003-2.697 7.611-7.134.732.074 1.464.149 4.095 1.494 5.84 5.792 11.126 5.864 16.53 5.86 17.931-.015 35.863.076 53.796.127.293 10.822.587 21.644.432 34.225z"/><path fill="#BCB4A2" d="M3412.487 2924.065c5.277-10.975 14.688-17.928 24.372-24.426 6.443-4.323 13.412-7.863 22.292-10.546 6.663 7.798 13.562 6.877 20.149 6.893 26.523.064 53.046.112 79.57.166.284 9.29.977 18.59.732 27.866-.22 8.255-4.982 11.94-13.086 10.969-3.944-.473-7.805-1.606-11.737-2.23-9.465-1.5-18.453 1.148-29.33 1.796-4.069-9.77-10.472-10.568-17.464-10.552-25.166.06-50.332.049-75.498.064z"/><path fill="#D2CDC1" d="M4380.228 2853.896c29.416-1.855 58.521-1.787 87.625-1.95 12.484-.07 24.84.35 37.333-3.003 8.658-2.325 18.405-1.092 27.627-.65 6.83.326 12.68 3.463 16.595 11.943-3.96 3.909-8.05 6.234-12.422 7.063-4.48.85-9.237.256-13.873.26-23.18.012-46.362.185-69.538-.069-8.93-.097-17.56 2.021-24.035 7.28-6.949 5.641-11.882 13.764-18.589 21.278-1.538 1.616-2.182 2.757-3.805 4.504-1.28 1.311-1.578 2.018-2.94 3.029-5 3.431-8.937 6.56-12.876 9.688-1.775-.241-3.55-.483-7.986-1.102-2.916-19.066-3.172-37.753-3.116-58.27z"/><path fill="#A59984" d="M4655.98 2782.35c-2.99 1.876-5.543 1.912-9.37 2.005-1.646-9.854-2.02-19.765-2.383-29.677-.237-6.478-.458-12.956-.714-20.174-4.335-.662-7.478-1.458-10.646-1.578-52.542-1.99-224.552-.698-241.596 1.91-.714 3.298-2.095 6.984-2.207 10.708-.32 10.604-.04 21.224-.174 31.836-.05 4.008-.546 8.033-6.909 9.4-2.053-19.876-2.206-39.162-2.172-58.448.003-1.813 1.184-3.624 1.879-5.609 1.992-.65 3.832-1.774 5.672-1.775 87.184-.07 174.367-.053 261.55.056 1.824.003 3.646 1.213 6.255 2.139 2.628 19.04 1.07 38.236.814 59.206z"/><path fill="#DDD9CF" d="M2145.671 3032.17c-.232-5.84-.888-11.7-.607-17.515.566-11.746 1.641-23.467 4.72-36.907 24.684-1.69 47.155-1.67 69.626-1.65-.006 17.487-.013 34.975-2.288 54.258-25.329 1.801-48.39 1.808-71.45 1.814z"/><path fill="#CBC3B4" d="M3282.564 2976.16c-3.318-7.64-1.469-15.441-.782-23.224.747-8.47 1.342-16.953 3.924-27.209 13.173-5.05 24.605-6.323 36.353-5.808 10.993.483 22.02.213 33.031.274.288 17.422.577 34.844-1.356 54.076-25.203 1.837-48.187 1.865-71.17 1.892z"/><path fill="#DAD6CC" d="M2655.837 2972.03c.223 16.164.446 32.328-1.715 50.272-24.614 1.8-46.842 1.82-69.07 1.84-.697-17.518-1.393-35.037.064-54.374 14.666-1.805 27.188-1.497 39.69-1.865 10.628-.313 20.973.592 31.03 4.127z"/><path fill="#B9B19D" d="M2147.653 2927.922c-.168-12.56-.912-25.147-.334-37.673.526-11.403 6.183-17.188 17.414-17.76 13.885-.707 27.844-.529 41.747-.058 8.23.279 12.383 4.08 12.932 12.265.887 13.207.713 26.485-1.252 41.541-24.995 1.767-47.751 1.726-70.507 1.685z"/><path fill="#ECE9E4" d="M3477.176 3065.924c-24.775 1.668-50.077 1.972-77.405 2.378-9.18-15.437-11.39-31.93-9.35-50.509 24.25-1.668 46.378-1.66 68.506-1.65 2.704 17.311 6.03 34.396 18.25 49.78z"/><path fill="#C7C0AF" d="M3411.415 2924.975c26.238-.925 51.404-.914 76.57-.974 6.992-.016 13.395.781 15.836 10.554-13.344 9.147-26.64 17.02-36.665 32.674-26.63.85-50.301.895-73.972.94 1.553-15.786 8.395-29.426 18.231-43.194z"/><path fill="#D8D3C8" d="M1892.99 2968.304c-.045 16.076-.091 32.152-2.537 49.969-24.294 1.8-46.186 1.86-68.08 1.92-.35-6.508-.829-13.014-1.024-19.528-.294-9.818-.39-19.641 1.457-31.01 24.746-1.482 47.465-1.416 70.185-1.35z"/><path fill="#BEB6A5" d="M2704.53 2940.068c-.335-9.509-.67-19.018.917-30.34 13.444-4.99 25.116-6.167 37.115-5.86 17.856.457 35.733.082 53.6.06 7.347 9.899 14.692 19.797 20.755 31-11.482 4.676-21.955 5.255-32.641 5.154-26.58-.253-53.164-.04-79.746-.014z"/><path fill="#E4E1DA" d="M2515.625 3004.145c13.733 9.061 22.721 21.768 26.475 38.436-19.476 1.429-37.007 1.623-54.529 1.313-7.349-.13-14.16 1.106-20.625 4.49-14.235-11.177-28.47-22.354-41.775-35.384 8.16-6.282 16.208-4.891 24.004-4.985 22.213-.269 44.534 1.461 66.45-3.87z"/><path fill="#CCC5B7" d="M2704.231 2941.804c26.881-1.762 53.465-1.975 80.045-1.722 10.686.101 21.16-.478 32.969-3.894 8.48 9.676 15.35 19.395 22.526 30.448-43.51 1.372-87.326 1.41-132.948 1.46-2.168-8.178-2.53-16.367-2.592-26.292z"/><path fill="#D8D3C8" d="M2515.06 3002.942c-21.351 6.534-43.672 4.804-65.885 5.073-7.796.094-15.845-1.297-24.695 3.806-15.245-7.456-26.05-18.23-31.56-34.749 7.719-3.06 14.055-4.707 20.441-4.935 13.052-.466 26.132-.188 39.2-.177 5.56.005 10.394-1.218 12.771-6.985 16.387 12.255 32.775 24.51 49.728 37.967z"/><path fill="#EDEBE6" d="M4096.14 3067.952c-13.148.02-26.303.334-39.44-.032-11.246-.313-22.211.782-34.641 4.002-8.279-9.834-7.887-21.461-9.752-32.462-.882-5.202-.494-10.619 1.488-17.68 23.3-1.724 44.43-1.707 65.978-.186 2.18 17.72 8.425 32.34 16.367 46.358z"/><path fill="#B4AB97" d="M3355.505 2918.419c-11.426 1.713-22.453 1.983-33.446 1.5-11.748-.515-23.18.758-36.102 4.089-2.863-10.481-5.054-21.028-4.996-31.561.072-12.959 7.19-19.612 19.91-20.035 12.64-.42 25.325-.44 37.957.116 10.409.458 15.966 5.82 16.778 16.164.728 9.269.256 18.631-.1 29.727z"/><path fill="#EDEBE6" d="M3236.9 3074.954c-11.193-2.477-21.581-3.349-32.24-3.054-12.551.347-25.12.014-39.212-1.55 7.707-15.07 11.416-30.647 16.762-46.307 22.866.02 43.886.046 64.905.072 2.523 17.631-2.451 33.888-10.215 50.84z"/><path fill="#DAD6CC" d="M3392.645 2969.747c24.21-1.623 47.881-1.668 73.42-1.738-3.016 14.49-8.003 28.985-6.777 46.416-22.489 1.709-44.617 1.7-68.554 1.696-4.374-15.186-1.684-30.004 1.91-46.374z"/><path fill="#C7C0AF" d="M2656.261 2970.224c-10.482-1.73-20.827-2.634-31.454-2.32-12.503.367-25.025.06-39.448.006-1.613-14.735-1.317-29.431 1.014-45.978 14.35-1.884 26.677-1.593 38.976-2.05 10.487-.392 20.614.834 30.53 4.14.269 14.8.538 29.598.382 46.202z"/><path fill="#CBC3B4" d="M2147.331 2929.75c23.078-1.787 45.834-1.746 70.434-1.692 2.068 14.818 2.29 29.624 2.08 46.234-22.906 1.786-45.377 1.767-69.699 1.754-2.28-14.818-2.708-29.643-2.815-46.296z"/><path fill="#C1B9A8" d="M2949.51 2904.064c-.522 14.813-1.044 29.626-3.782 46.232-23.927 1.828-45.639 1.862-67.35 1.897-.314-14.725-.628-29.45 1.136-46.098 24.717-1.96 47.357-1.995 69.997-2.031z"/><path fill="#B4AB97" d="M2656.26 2922.225c-10.297-1.51-20.424-2.735-30.911-2.344-12.299.458-24.625.167-38.752.231-2.774-7.184-4.136-14.376-4.55-21.622-.259-4.515.218-9.337 1.6-13.622 2.43-7.532 7.795-12.34 16.136-12.444 13.268-.165 26.554-.45 39.803.08 10.427.419 15.891 5.717 16.615 16.099.736 10.567.341 21.214.06 33.622z"/><path fill="#DCD8CE" d="M3247.537 3022.34c-21.441 1.749-42.461 1.722-65.734.09-1.661-15.817-6.152-29.044-8.584-43.006 7.323-1.568 13.066-3.184 18.838-3.294 17.088-.329 34.186-.064 51.28-.03 6.903 14.265 4.198 29.528 4.2 46.24z"/><path fill="#DDD9CF" d="M3785.335 3025.75c-21.596 1.899-43.133 2.124-66.956.784-5.372-16.48-8.458-31.398-9.602-46.376 23.62-.082 45.3-.103 66.978-.123 3.214 14.68 6.427 29.36 9.58 45.715z"/><path fill="#B1A894" d="M1969.891 2916.198c-3.368-11.339.945-22.235 2.208-33.255.807-7.034 5.073-10.642 12.097-10.75 16.487-.252 33.004-.312 49.468.442 8.86.405 12.885 5.8 12.416 14.597-.456 8.556-1.43 17.084-4.39 27.23-25.41 1.65-48.604 1.693-71.799 1.736z"/><path fill="#EFEDE9" d="M2584.736 3025.945c22.544-1.823 44.772-1.844 68.831-1.856 2.247 14.783 2.662 29.558 2.639 46.13-10.562-1.858-21.017-2.593-31.703-2.282-11.932.347-23.881.127-37.62.152-2.019-13.448-2.24-26.895-2.147-42.144z"/><path fill="#E8E5DF" d="M3942.093 3050.504c-22.478 1.683-44.364 1.602-68.11 1.517-1.932-13.448-2.004-26.893.08-42.15 24.376-1.786 46.599-1.76 68.821-1.733-.066 13.535-.132 27.069-.791 42.366z"/><path fill="#DFDCD3" d="M3662.298 3028.084c-22.364-.04-44.728-.08-69.005-.158 1.165-14.094 4.243-28.15 9.996-43.25 24.198-.76 45.722-.476 67.135 1.534-2.784 15.109-5.455 28.491-8.126 41.874z"/><path fill="#D2CDC1" d="M4203.692 2957.822c8.443-4.295 17.253-6.253 26.864-5.95 15.275.48 30.575.121 47.75.087 11.376 11.932 15.217 25.618 12.255 42.357-19.132-4.003-36.743-2.357-54.187-2.06-4.33.075-8.617 2.5-13.821 2.754-3.116-14.997-9.972-26.599-18.861-37.188z"/><path fill="#F1EFEB" d="M2145.328 3033.94c23.404-1.776 46.465-1.783 71.293-1.777 1.427 13.625 1.087 27.237.067 42.343-10.828-1.818-21.191-2.943-31.887-2.6-12.563.401-25.152.018-39.645-.117-1.334-12.088-.753-24.084.172-37.85z"/><path fill="#CCC5B7" d="M3243.45 2974.667c-17.207 1.4-34.305 1.134-51.393 1.463-5.772.11-11.515 1.726-19.945 2.573-9.871-13.268-21.582-21.828-33.517-30.157 6.432-6.277 13.674-9.127 23.11-8.775 20.614.768 41.275.272 63.74.303 7.254 11.06 12.685 22.11 18.004 34.593z"/><path fill="#DAD6CC" d="M4079.355 3020.089c-21.13-.016-42.26-.033-65.242-.048-3.84-13.877-3.372-27.587 3.523-42.51 10.332-1.492 18.104-1.413 25.874-1.542 14.232-.238 28.455-.54 41.815 6.015-4.211 13.468-5.14 25.769-5.97 38.085z"/><path fill="#EFEDE9" d="M4281.657 3075.195c-11.868-2.395-22.837-3.657-34.139-3.289-13.17.43-26.364.149-41.07-1.156 7.635-12.366 12.126-25.738 19.133-38.781 23.274.033 44.66.053 66.045.073 1.41 14.985-4.154 28.506-9.969 43.153zm-2233.135-5.062c-10.636 5.018-21.45 6.316-32.62 5.961-13.003-.412-26.03-.038-40.834 0-2.524-12.172-3.262-24.35-1.714-38.312 24.867-1.767 47.45-1.748 70.034-1.73 1.719 10.805 3.437 21.61 5.134 34.08z"/><path fill="#D2CDC1" d="M2877.932 2953.963c22.157-1.805 43.869-1.84 67.391-1.855 2.01 12.166 2.208 24.313.17 38.226-23.836 1.778-45.436 1.788-67.035 1.798-.324-12.133-.648-24.266-.526-38.17z"/><path fill="#ECE9E4" d="M1821.937 3021.958c22.33-1.824 44.222-1.885 67.968-1.93 2.019 12.17 2.184 24.325 1.925 38.257-22.583 1.803-44.744 1.828-68.687 1.853-1.736-12.139-1.69-24.278-1.206-38.18z"/><path fill="#D8D3C8" d="M3943.314 3006.359c-22.652 1.753-44.875 1.726-68.931 1.707-2.097-10.815-2.36-21.637-.83-34.482 8.785-3.218 15.753-5.225 22.777-5.444 15.643-.488 31.314-.081 46.974-.04.147 12.16.294 24.32.01 38.259z"/><path fill="#AFA591" d="M2538.6 2894.778c-45.112 1.42-89.748 1.384-136.218 1.395 1.47-7.29 8.66-9.724 15.044-12.99 12.569-6.432 26.198-9.794 40.123-10.527 17.857-.94 35.787-.653 53.682-.518 4.554.035 9.216 1.092 13.62 2.386 9.215 2.707 14.834 8.486 13.749 20.254z"/><path fill="#B3A994" d="M2795.82 2902.584c-17.525 1.366-35.402 1.741-53.258 1.284-12-.307-23.671.87-36.886 4.088-2.543-5.839-3.576-11.7-4.19-17.605-.634-6.103.442-11.855 4.877-16.495 10.046-1.918 53.096-2.919 61.157-1.71 6.371.955 10.992 4.44 14.558 9.414 4.622 6.448 8.947 13.11 13.742 21.024z"/><path fill="#E0DDD5" d="M4292.107 3030.294c-21.866 1.728-43.252 1.708-66.704-.113-2.028-12.562-1.99-23.322-1.953-34.082 4.307-1.344 8.595-3.768 12.924-3.842 17.444-.298 35.055-1.944 53.78 3.719 1.929 10.889 2.181 21.73 1.953 34.318z"/><path fill="#CEC8BA" d="M3775.944 2978.492c-21.867 1.563-43.546 1.584-68.124.725-6.018-9.358-9.138-17.837-12.258-26.316.857-5.058 3.179-8.7 8.891-8.748 11.242-.096 22.487-.296 33.724-.089 8.034.148 15.811-.626 24.96-4.105 5.479 12.15 9.238 24.57 12.807 38.533z"/><path fill="#CCC5B7" d="M2993.177 2941.865c19.615-1.797 38.83-1.78 58.044-1.885 6.14-.033 12 .33 16.268 9.107-1.154 10.965-2.784 18.987-6.225 26.996-23.753.01-45.693.032-67.633.054-.286-10.836-.57-21.671-.454-34.272z"/><path fill="#DAD6CC" d="M3282.226 2977.704c23.321-1.57 46.305-1.598 71.102-1.61 2.072 10.834 2.33 21.652.365 34.228-24.58 1.747-46.936 1.736-69.292 1.724-.838-10.933-1.676-21.866-2.175-34.342z"/><path fill="#E8E5DF" d="M3284.056 3013.819c22.701-1.761 45.057-1.75 69.223-1.736 2.086 10.818 2.361 21.633.422 34.214-24.575 1.756-46.936 1.747-69.297 1.737-.231-10.814-.463-21.628-.348-34.215z"/><path fill="#DAD6CC" d="M2993.324 2977.914c22.247-1.799 44.187-1.82 68.224-.048 1.564 12.593 1.032 23.393-1.247 34.2-23.447.019-45.146.03-66.845.04-.146-10.805-.293-21.61-.132-34.192z"/><path fill="#E0DDD5" d="M2877.98 2993.863c22.077-1.741 43.677-1.751 67.07-1.755 1.904 10.848 2.016 21.69 1.683 34.29-18.376 1.71-36.308 1.619-54.24 1.634-5.403.004-10.689-.068-15.426-5.906-.386-9.721.025-18.126.913-28.263z"/><path fill="#C7C0AF" d="M3943.84 2966.754c-16.196 1.305-31.867.898-47.51 1.386-7.024.22-13.992 2.226-22.642 3.643-3.083-11.112-1.508-23.323-11.824-33.635 26.345-1.63 53.354-1.99 80.362-1.98 3.776.002 7.552 1.83 12.922 3.488-5.314 7.66-9.061 16.204-11.309 27.098z"/><path fill="#E8E5DF" d="M2993.11 3013.772c22.045-1.676 43.744-1.687 67.55.066 2.122 12.59 2.137 23.417.353 34.249-23.705-.072-45.613-.149-67.52-.226-.243-10.808-.487-21.615-.384-34.089z"/><path fill="#D0CABD" d="M3670.535 2984.484c-21.524-.284-43.048-.568-66.588-1.103.82-12.435 3.655-24.62 7.313-38.085 13.507 3.367 26.723 2.617 39.892 2.779 9.134.112 18.588-1.771 28.21 5.197-2.248 11.711-5.538 21.461-8.827 31.212z"/><path fill="#CBC3B4" d="M1893.8 2966.984c-23.529 1.255-46.248 1.189-70.755 1.143-2.73-8.407-1.394-17.336-7.863-26.144 5.027-2.962 10.65-5.598 16.344-5.758 19.083-.536 38.192-.195 57.29-.171 4.803.006 9.274.682 11.563 7.824-1.606 8.392-3.688 15.089-6.58 23.106z"/><path fill="#AFA591" d="M4219.42 2886.095c-2.508 6.524-8.022 5.873-13.248 5.882-21.11.038-42.22.022-63.332.023-21.11 0-42.22-.005-65.227-.066 8.914-12.127 23.95-15.931 38.652-18.883 35.188-7.066 69.67-4.776 103.154 13.044z"/><path fill="#CEC8BA" d="M2464.83 2963.683c-1.875 7.06-6.71 8.282-12.269 8.277-13.068-.01-26.148-.289-39.2.177-6.386.228-12.722 1.875-20.693 3.538-9.283-9.174-8.993-20.762-8.6-33.961 24.506-1.64 48.73-1.629 74.891-1.547.196 7.901.349 15.44 5.87 23.516zm1620.823 16.697c-13.688-4.93-27.911-4.629-42.143-4.391-7.77.13-15.542.05-25.144.07-.65-11.369 4.862-21.06 11.092-31.762 18.62-.71 36.291-.396 53.962-.34 7.291.023 14.412.325 21.704 6.203-2.75 6.285-8.518 8.432-10.53 14.901-1.71 5.501-5.867 10.242-8.941 15.319z"/><path fill="#F5F4F1" d="M2993.147 3049.626c22.253-1.688 44.16-1.61 68.243.183 2.662 11.08 3.15 20.445 3.637 29.81-22.215 5.891-44.877 4.502-69.52 3.963-2.265-10.856-2.486-21.524-2.36-33.956z"/><path fill="#A79F8C" d="M2950.187 2902.777c-23.316 1.323-45.956 1.358-70.299 1.536-3.529-10.167-5.293-20.472.618-30.991 18.317-1.702 36.658-1.008 54.931-.301 10.218.396 14.798 5.953 15.752 16.668.347 3.894-.191 7.865-1.002 13.088z"/><path fill="#F3F1EE" d="M2467.531 3049.691c5.88-4.691 12.691-5.927 20.04-5.797 17.522.31 35.053.116 54.444.124 7.445 8.918 6.36 18.932 6.147 30.364-23.586 1.537-46.742 1.442-71.879 1.174-.256-9.262-2.123-17.44-8.752-25.865z"/><path fill="#CEC8BA" d="M2042.936 2944.113c.266 9.5.532 19-1.402 30.236-24.682 1.703-47.163 1.67-69.643 1.637-.263-9.499-.526-18.997 1.409-30.246 24.676-1.709 47.156-1.668 69.636-1.627z"/><path fill="#DAD6CC" d="M1971.521 2977.734c22.85-1.715 45.331-1.682 69.612-1.644 2.068 9.503 2.336 19 .406 30.234-24.688 1.713-47.178 1.688-69.67 1.663-.239-9.501-.478-19.002-.348-30.253z"/><path fill="#F3F1EE" d="M2773.285 3073.91c-21.043 2.93-41.867.992-63.584 3.03-.838 8.8-1.565 16.42-3.076 25.361-.996-17.298-1.208-35.919.739-56.37 23.083-1.873 44.009-1.914 64.934-1.955.446 9.401.893 18.803.987 29.933z"/><path fill="#E0DDD5" d="M2871.339 3019.447c-.078 5.668-2.487 8.296-7.081 8.365-9.072.136-18.153.386-27.216.131-9.828-.276-19.385.61-30.415 4.74-7.193-8.48-12.508-17.283-18.3-27.354 5.4-4.524 11.678-5.506 18.384-5.404 16.34.25 32.688.108 50.862.127 5.632 6.057 9.434 12.11 13.766 19.395z"/><path fill="#C3BBA9" d="M2043.323 2942.397c-22.867 1.675-45.347 1.634-69.719 1.583-2.724-8.23-3.556-16.45-4.05-26.227 23.532-1.598 46.726-1.641 71.728-1.65 2.015 8.215 2.222 16.397 2.041 26.294z"/><path fill="#AFA591" d="M3559.263 2894.576c-26.917 1.522-53.44 1.474-79.963 1.41-6.587-.016-13.486.905-18.75-7.138 14.492-11.912 32.082-14.957 49.848-16.84 9.19-.973 18.553-.514 27.832-.373 5.916.09 12.077-.087 16.737 4.699 4.575 4.699 5.077 10.56 4.296 18.242z"/><path fill="#E4E1DA" d="M1971.476 3009.706c22.885-1.694 45.375-1.669 69.668-1.641 2.161 8.177 2.52 16.353 2.562 26.257-22.901 1.712-45.485 1.693-69.948 1.67-2.145-8.191-2.41-16.38-2.282-26.286z"/><path fill="#F3F1EE" d="M3284.039 3049.756c22.726-1.712 45.087-1.703 69.261-1.693 2.074 8.186 2.334 16.373 2.19 26.273-22.729 1.707-45.055 1.7-69.225 1.69-2.093-8.184-2.342-16.366-2.226-26.27z"/><path fill="#EAE7E1" d="M2772.8 3042.3c-21.427 1.717-42.353 1.758-65.013 1.823-2.015-8.156-2.293-16.335-2.214-26.236 21.389-1.75 42.42-1.78 65.374-1.729 2.068 8.208 2.21 16.337 1.852 26.142z"/><path fill="#A90A08" d="M2841.154 1475.72c1.95-4.771 5.177-9.655 10.065-14.124 2.81 1.36 3.957 2.307 5.105 3.253-4.631 3.586-9.262 7.173-15.17 10.872z"/><path fill="#E90B35" d="M2856.874 1463.54c-1.698.363-2.846-.584-4.51-2.524.139-1.435.795-1.877 2.491-1.748 1.55 1.368 2.059 2.166 2.019 4.272z"/><path fill="#FCFCFB" d="M3291.293 2312.6c-8.353 13.516-19.115 25.15-28.81 37.557-10.056 12.868-24.51 22.18-31.062 37.939-1.45 3.484-5.114 6.066-7.823 9.005-117.128 127.036-260.158 207.36-430.195 239.63-73.089 13.87-146.682 19.052-220.756 14.075-120.769-8.115-233.795-42.843-339.489-101.851-83.244-46.476-157.474-104.547-223.472-173.13-17.056-17.723-32.266-37.22-47.146-57.947 6.528-7.437 12.47-11.01 20.61-9.978 4.588.582 9.312.1 13.974.1h601.482c220.477 0 440.953.012 661.43-.035 10.685-.002 21.34-.31 31.257 4.634z"/><path fill="#F5F4F1" d="M3292.329 2311.92c-10.953-4.265-21.608-3.957-32.293-3.955-220.477.047-440.953.035-661.43.035h-601.482c-4.662 0-9.386.482-13.974-.1-8.14-1.031-14.082 2.54-21.099 8.614-3.548-1.123-5.69-2.721-7.274-4.754-41.322-53.01-76.146-109.938-102.29-174.313 8.3-7.437 16.508-5.342 24.312-5.347 188.43-.128 376.86-.098 565.29-.109 5.99 0 11.988.03 17.97-.238 5.798-.259 7.698-4.35 8.402-9.358 21.746 8.004 43.1 16.929 65.747 22.555 100.114 24.87 222.976 2.755 308.327-69.05 11.851-.143 20.505.083 29.158.084 165.797.021 331.595.069 497.392-.094 12.045-.012 23.84.62 35.4 4.075-3.36 12.07-6.093 24.358-10.186 36.175-24.204 69.894-57.815 134.97-101.97 195.78z"/><path fill="#C3BBA9" d="M3049.003 1079.466c19.52 11.113 46.183 30.919 58.716 43.613-.305 1.262-.233 2.833-.974 3.741-32.775 40.204-65.62 80.35-100.967 120.52-6.241-2.592-9.776-5.564-13.748-7.74-8.592-4.71-18.115-3.588-27.401-3.588-315.246-.014-630.493-.028-945.738.029-18.557.003-37.248-1.656-55.522 3.487-1.8.506-3.955-.252-5.945-.424 1.405-2.232 2.596-4.64 4.248-6.67 46.714-57.416 99.225-108.744 162.463-151.444 10.976 4.73 19.82 2.932 28.357 2.935 288.464.09 576.928.075 865.392.074 4.663 0 9.417.564 13.967-.154 5.803-.916 11.442-2.871 17.152-4.379z"/><path fill="#EBE8E2" d="M3405.507 2078.87c-12.583-2.36-24.377-2.992-36.422-2.98-165.797.163-331.595.115-497.392.094-8.653 0-17.307-.227-27.981-.587 1.655-4.052 5.228-7.972 9.025-11.663 27.929-27.156 50.91-58.067 69.841-92.035 2.152-3.862 3.536-8.151 6.148-14.292-89.344 9.778-176.346 20.948-264.81 31.135-1.358-5.921-2.844-10.81-3.568-15.81-5.254-36.254-10.354-72.53-13.29-110.646 12.196-1.926 22.182-2.075 32.167-2.076 233.02-.013 466.038-.022 699.057.012 19.204.003 38.522-1.323 57.365 3.998-.312 17.86.246 35.784-1.096 53.566-4.097 54.28-13.006 107.786-29.044 161.284z"/><path fill="#CBC3B4" d="M1956.431 1239.876c2.983-.6 5.138.158 6.938-.348 18.274-5.143 36.965-3.484 55.522-3.487 315.245-.057 630.492-.043 945.738-.029 9.286 0 18.809-1.122 27.401 3.587 3.972 2.177 7.507 5.15 12.693 8.47-6.774 11.153-14.845 21.726-23.257 32.018-27.383 33.502-54.89 66.901-83.897 99.449-3.986-8.439-10.277-10.637-17.083-11.254-6.611-.599-13.31-.275-19.97-.275-320.433-.008-640.866-.005-961.3-.018-9.325 0-18.65-.16-27.975-.247 2.895-5.896 5.454-11.987 8.74-17.657 22.279-38.453 47.63-74.802 76.45-110.209z"/><path fill="#D0CABD" d="M1870.165 1368.564c10.401-.736 19.726-.575 29.052-.575 320.433.013 640.866.01 961.299.018 6.66 0 13.359-.324 19.97.275 6.806.617 13.097 2.815 15.903 12.002-2.336 10.938-14.691 12.772-16.169 23.02-15.455 11.973-22.914 30.389-35.898 44.465-13.045 14.14-24.63 29.628-36.786 44.582-1.676 2.061-2.948 4.45-4.831 7.338-7.695-5.375-13.645-9.487-19.551-13.663-34.67-24.515-72.498-41.733-114.671-48.095-15.72-2.372-31.73-3.774-47.619-3.863-39.998-.222-79.632 3.778-118.266 14.706-48.086 13.602-90.732 37.245-129.545 69.547-2.32-2.192-2.858-4.053-3.769-4.259-11.56-2.609-22.866-6.166-35.003-6.155-161.307.14-322.614.083-483.92.142-5.292.002-10.98-.383-15.789 1.347-8.505 3.06-17.068 2.36-25.673 2.65 7.175-20.62 13.208-41.73 21.804-61.738 11.776-27.412 25.498-53.988 39.462-81.744z"/><path fill="#E2DFD7" d="M3436.082 1862.188c-19.278-3.489-38.596-2.163-57.8-2.166-233.019-.034-466.038-.025-699.057-.012-9.985 0-19.97.15-32.02.321-6.387-28.47-10.756-57.022-15.012-85.592-2.517-16.894-4.853-33.815-5.08-52.616 7.513-1.97 12.834-2.117 18.155-2.117 260.768-.002 521.536.01 782.305.019 2.49 21.65 5.902 43.244 7.229 64.965 1.53 25.063 1.223 50.24 1.28 77.198z"/><path fill="#BAB29E" d="M3048.234 1078.312a52.003 52.003 0 01-16.383 5.533c-4.55.718-9.304.154-13.967.154-288.464 0-576.928.016-865.392-.074-8.538-.003-17.38 1.796-27.053-3.293 12.606-10.529 26.302-21.096 40.959-30.1 86.213-52.96 179.673-86.26 279.346-103.095 68.053-11.496 136.487-15.113 205.164-10.452 95.988 6.516 187.728 30.577 275.02 71.234 42.354 19.727 82.945 42.573 122.306 70.093z"/><path fill="#EFEDE9" d="M2467.53 2121.436c.227 5.966-1.673 10.058-7.471 10.317-5.982.267-11.98.238-17.97.238-188.43.011-376.86-.02-565.29.109-7.804.005-16.013-2.09-24.451 3.962-4.795-6.288-8.894-13.822-12.173-21.698-18.154-43.608-31.953-88.626-40.923-136.311 10.712-1.88 19.352-2.041 27.993-2.042 150.229-.015 300.458-.008 450.687-.02 5.98-.001 11.964-.054 17.94-.26 4.363-.148 7.437-2.442 9.298-6.374 1.577 2.104 3.091 4.258 4.742 6.302 7.433 9.205 10.966 20.588 18.678 29.982 22.405 27.296 45.608 53.609 73.702 75.213 20.053 15.421 41.604 28.472 65.238 40.582z"/><path fill="#E8E5DF" d="M2304.908 1968.057c-1.6 5.232-4.673 7.526-9.035 7.675-5.977.205-11.96.258-17.941.258-150.23.013-300.458.006-450.687.021-8.64.001-17.28.161-27.98.358-7.533-27.726-13.926-55.42-18.21-83.438-3.89-25.445-5.485-51.24-5.804-78.797 162.73-1.966 323.172-2.017 483.614-2.068 4.729 36.731 10.821 73.193 24.77 107.754 6.41 15.885 13.972 31.306 21.273 48.237z"/><path fill="#DFDCD3" d="M2259.16 1810.422c-160.737 1.695-321.178 1.746-483.665 1.89-5.545-41.177-4.461-82.438-1.662-123.68.766-11.295 2.255-22.542 6.088-35.256 156.064-1.423 309.452-1.4 462.84-1.373 5.313 0 10.633-.14 15.935.106 7.65.355 14.238 2.92 18.29 9.99-4.32 17.277-9.246 34.43-12.83 51.859-6.438 31.305-6.524 63.043-4.996 96.464z"/><path fill="#D8D3C8" d="M2278.001 1661c-5.067-5.97-11.654-8.536-19.305-8.891-5.302-.246-10.622-.105-15.934-.106-153.389-.027-306.777-.05-462.14-.131.094-35.79 8.683-70.335 17.296-104.853 2.708-10.852 6.366-21.468 10.285-33.582 9.301-1.68 17.864-.98 26.37-4.041 4.807-1.73 10.496-1.345 15.788-1.347 161.306-.06 322.613-.002 483.92-.142 12.137-.011 23.443 3.546 35.003 6.155.911.206 1.449 2.067 2.487 4.688-2.246 4.506-4.64 7.663-7.42 10.433-37.682 37.551-66.639 80.781-86.35 131.817z"/><path fill="#DAD6CC" d="M3427.824 1718.36c-261.02 1.655-521.788 1.644-782.556 1.646-5.321 0-10.642.146-18.026.317-4.928-14.141-8.11-28.338-7.652-42.808 14.926-4.915 105.417-16.197 196.224-25.874 65.573-6.988 130.979-15.545 196.46-23.391 65.482-7.847 130.958-15.747 196.45-23.5 65.492-7.755 131-15.357 197.46-23.138 1.512 3.416 3.944 6.78 4.468 10.42 5.975 41.53 11.66 83.101 17.172 126.327z"/><path fill="#FDFDFD" d="M1670.323 2363.213c2.624 2.007 5.448 3.8 7.841 6.05 49.045 46.115 98.018 92.306 147.093 138.388 3.393 3.185 7.474 5.637 11.939 8.952-16.947 22.228-31.187 43.266-47.82 62.203-29.496 33.579-61.988 64.256-96.218 93.073-71.224 59.961-152.65 99.056-243.195 119.715-48.756 11.124-98.098 18.615-147.693 24.837-39.74 4.986-79.525 7.874-119.59 8.02-146.774.537-283.133-37.127-409.171-111.846-124.608-73.87-228.58-169.808-307.477-291.913-11.191-17.32-20.985-35.544-29.84-54.889 10.906-1.627 20.227-1.792 29.548-1.792 391.55-.013 783.1-.005 1174.65-.044 9.978-.001 19.956-.491 29.933-.754z"/><path fill="#F7F5F3" d="M1669.65 2361.977c-9.304 1.499-19.282 1.989-29.26 1.99-391.55.039-783.1.031-1174.65.044-9.321 0-18.642.165-29.984.395-13.131-22.327-25.135-44.406-35.152-67.351-17.203-39.409-31.206-80.02-39.531-123.513 13.929-5.633 26.48-5.599 39.103-5.592 138.203.08 276.407.038 414.61.064 18.51.004 37.093-1.065 55.358 3.227 10.82 14.228 21.63 28.465 32.477 42.674 1.207 1.582 2.336 3.51 3.976 4.43 13.711 7.702 21.35 22.53 36.063 29.56 6.426 3.07 10.193 11.642 18.679 12.871 12.137 12.44 28.723 17.015 43.823 23.843 16.3 7.37 33.329 13.547 50.58 18.272 16.615 4.55 33.806 7.544 50.94 9.556 87.855 10.314 172.55-3.982 254.596-35.243 46.922-17.878 87.091-45.728 117.47-86.484.779-1.044 1.922-1.816 3.81-3.562 3.333 2.506 7.133 4.843 10.317 7.836 58.744 55.202 117.415 110.482 176.775 166.983z"/><path fill="#D6D0C4" d="M1488.691 1460.229c-1.363 3.708-2.463 7.538-4.127 11.107a163344.602 163344.602 0 01-94.407 202.147c-2.233 4.774-4.85 9.368-7.865 15.153-5.896-4.274-11.206-8.084-16.476-11.949-41.23-30.234-86.275-52.108-136.573-62.59-41.464-8.64-83.097-8.856-127.052-4.86-4.323-4.178-6.2-7.864-8.697-8.346-5.799-1.119-11.896-.865-17.872-.866-226.399-.02-452.797-.006-679.195.003 1.511-4.31 2.657-8.793 4.59-12.906 21.378-45.51 46.149-89.07 78.08-130.782 12.645-1.894 22.472-4.18 32.3-4.185 316.51-.187 633.02-.116 949.53-.323 10.463-.007 19.682 1.696 27.764 8.397z"/><path fill="#CEC8BA" d="M1489.773 1459.341c-9.164-5.813-18.383-7.516-28.846-7.509-316.51.207-633.02.136-949.53.323-9.828.006-19.655 2.291-31.283 3.358.204-3.548 1.96-7.118 4.25-10.305 35.625-49.597 75.658-95.294 124.046-136.783 308.522-.426 613.907-.43 919.292-.422 6.652 0 13.305.063 19.955.206 4.361.093 7.47 2.362 9.63 6.052-3.612 8.51-6.976 17.135-10.875 25.51-18.44 39.598-37.024 79.128-56.64 119.57z"/><path fill="#C5BEAD" d="M1558.293 1313.196c-3.166-2.625-6.275-4.894-10.636-4.987a933.42 933.42 0 00-19.955-.206c-305.385-.007-610.77-.004-918.045-.05 2.786-4.687 7.195-9.635 12.176-13.919 96.838-83.28 208.143-137.653 332.535-165.454 59.269-13.246 119.258-20.873 180.143-20.406 91.327.7 179.952 17.176 266.46 45.717 59.537 19.643 116.71 44.808 171.503 75.314 6.313 3.514 12.42 7.4 19.356 11.552-9.703 25.176-21.789 47.979-33.537 72.439z"/><path fill="#F1EFEB" d="M869.67 2169.877c-17.79-2.928-36.374-1.859-54.884-1.863-138.203-.026-276.407.016-414.61-.064-12.622-.007-25.174-.041-39.068 4-6.1-17.278-11.07-34.455-14.7-51.91-6.914-33.239-12.092-66.777-12.842-102.542 13.781-8.347 26.574-9.703 40.129-9.672 128.837.292 257.676.155 386.513.195 18.495.006 37.103-1.263 55.224 4.006 3.765 17.432 7.378 34.898 11.326 52.289 8.41 37.053 22.468 71.836 42.912 105.561z"/><path fill="#E2DFD7" d="M890.426 1732.738c-2.556 3.831-4.89 7.833-7.7 11.467-29.03 37.552-49.47 79.297-64.06 126.514-155.499 1.29-308.351 1.297-461.204 1.254-9.298-.002-18.595-.39-27.893-.598 2.347-23.815 3.65-47.793 7.327-71.4 3.886-24.948 10.035-49.544 17.842-75.367 11.297-.918 19.948-.63 28.599-.628 157.794.027 315.588.098 473.382-.132 12.295-.018 23.724 1.146 33.707 8.89z"/><path fill="#DCD8CE" d="M891.456 1732.015c-11.013-7.02-22.442-8.185-34.737-8.167-157.794.23-315.588.16-473.382.132-8.651-.001-17.302-.29-27.995-.73 7.13-42.088 22.075-81.919 40.152-122.11 227.331-1.121 453.73-1.135 680.128-1.115 5.976 0 12.073-.253 17.872.866 2.496.482 4.374 4.168 6.861 8.198-22.918 6.927-46.222 11.817-68.594 20.24-55.905 21.051-102.077 55.371-140.305 102.686z"/><path fill="#EAE7E1" d="M329.13 1872.983c9.737-1.4 19.034-1.012 28.332-1.01 152.853.043 305.705.036 460.415.041.574 8.503-.65 17.015-2.004 25.506-5.908 37.06-5.107 74.113-.204 112.837-18.358-3.6-36.966-2.33-55.46-2.336-128.838-.04-257.677.097-386.514-.195-13.555-.031-26.348 1.325-39.876 7.996-2.825-11.017-5.111-22.213-5.235-33.432-.396-35.929.01-71.866.545-109.407z"/><path fill="#C7C0AF" d="M3852.688 1333.08c-5.881-.269-11.851-1.33-17.629-.678-37.693 4.25-75.345 8.866-113.01 13.372-39.645 4.744-79.29 9.493-118.934 14.25-39.643 4.756-79.281 9.562-118.931 14.263-11.18 1.325-22.393 2.355-34.88 3.655-5.551-22.1-7.04-43.955-10.216-65.508a14432.399 14432.399 0 01-9.194-63.213c-3.105-21.737-6.114-43.488-6.962-67.12 12.2-1.958 22.197-2.092 32.194-2.092 413.908-.01 827.816-.001 1241.724-.054 9.978-.002 19.956-.681 29.934-1.044l6.921 44.111c-4.69 1.56-8.163 3.386-11.8 3.821-49.426 5.906-98.885 11.53-148.314 17.403-50.089 5.952-100.15 12.14-150.231 18.154-29.611 3.557-59.237 6.978-90.154 10.612-.27 4.784-1.176 9.226-.643 13.487 1.732 13.825 3.99 27.584 3.886 43.289-10.818 2.017-19.477 2.199-28.136 2.2-142.567.017-285.134-.008-427.702.058-9.308.005-18.615.674-27.923 1.034z"/><path fill="#B9B19D" d="M4688.798 915.918c1.663 9.019 3.624 17.994 4.937 27.063 4.91 33.902 9.607 67.834 12.317 103.393-428.092 1.634-854.116 1.627-1280.14 1.647-7.984 0-15.968.323-23.951.495-6.027-41.701-12.053-83.403-16.27-127.031 10.537-6.355 19.957-5.482 29.254-5.483 243.305-.006 486.61.006 729.916-.008 181.312-.01 362.624-.05 543.937-.076z"/><path fill="#C0B8A6" d="M3401.974 1050.262c7.97-1.918 15.954-2.24 23.937-2.24 426.025-.02 852.05-.014 1279.928-.006 5.875 25.46 9.987 50.902 13.884 76.377 2.6 16.995 4.894 34.038 7.193 52.788-10.11 2.093-20.088 2.772-30.066 2.774-413.908.053-827.816.044-1241.724.054-9.997 0-19.994.134-32.08.27-6.32-27.548-10.624-55.15-14.749-82.777-2.26-15.141-4.216-30.328-6.323-47.24z"/><path fill="#B3A994" d="M4688.95 914.185c-181.465 1.76-362.777 1.8-544.09 1.81-243.304.013-486.61.001-729.915.007-9.297 0-18.717-.872-29.091 3.782-4.839-8.57-6.062-17.58-5.634-27.654 3.895-1.026 6.963-2.233 10.13-2.61 423.658-50.375 847.323-100.689 1271.865-151.11 1.641 4.689 3.538 8.198 4.067 11.902 7.714 54.031 15.245 108.089 22.668 163.873z"/><path fill="#F8F7F5" d="M4462.546 2203.09c5.771 38.786 11.566 77.568 17.302 116.359 2.14 14.471 4.171 28.959 6.184 43.449.441 3.181.596 6.402.802 8.704-1.246 1.453-1.579 2.02-2.068 2.364-.532.374-1.19.701-1.825.777-157.15 18.696-314.304 37.37-471.462 55.996-.486.057-1.054-.585-3.021-1.756-11.31-73.1-20.988-147.517-29.897-223.346 153.397-1.613 304.77-1.61 456.142-1.676 9.28-.004 18.562-.567 27.843-.87z"/><path fill="#CFC9BC" d="M3852.668 1334.827c9.328-2.107 18.635-2.776 27.943-2.78 142.568-.067 285.135-.042 427.702-.06 8.66 0 17.318-.182 28.018-.44 9.419 50.91 16.797 101.98 22.069 154.752-162.395 1.687-322.684 1.674-482.973 1.66-2.258-12.324-4.904-24.592-6.703-36.983-5.533-38.11-10.741-76.265-16.056-116.15z"/><path fill="#E4E1DA" d="M3935.172 1907.954c-1.956-10.303-4.308-20.55-5.8-30.92-5.833-40.56-11.395-81.16-15.033-123.373 153.987-1.638 305.95-1.642 457.911-1.683 8.66-.002 17.32-.318 25.979-.488 7.392 51.06 14.785 102.12 20.272 154.63-10.61-2.924-19.993-2.12-29.27-2.12-139.572 0-279.144.073-418.716-.129-12.04-.017-23.768.923-35.343 4.083z"/><path fill="#ECE9E4" d="M3935.006 1909.674c11.741-4.88 23.469-5.82 35.51-5.803 139.571.202 279.143.129 418.715.13 9.277 0 18.66-.805 29.02 3.788 3.992 13.143 6.71 26.014 8.591 39.006 5.095 35.2 9.833 70.45 12.563 107.431-143.913 1.76-285.676 1.748-427.44 1.797-18.532.007-37.184-1.31-55.343 4.002-2.204-12.978-4.696-25.914-6.555-38.94a7597.712 7597.712 0 01-15.061-111.411z"/><path fill="#F3F1EE" d="M3956.408 2061.66c18.373-6.947 37.025-5.63 55.557-5.637 141.764-.05 283.527-.038 427.247-.062 5.5 22.226 9.188 44.445 12.547 66.715 3.865 25.623 7.438 51.29 10.963 78.676-9.457 2.042-18.738 2.605-28.019 2.61-151.372.066-302.745.062-455.93.072-5.948-26.681-10.213-53.34-14.178-80.046-3-20.201-5.614-40.46-8.187-62.328z"/><path fill="#DDD9CF" d="M4398.36 1749.749c-8.79 1.91-17.45 2.227-26.11 2.23-151.961.04-303.924.044-457.714.056-5.929-26.239-10.126-52.463-14.095-78.722-2.681-17.738-5.042-35.525-5.548-55.271 12.084-6.35 22.741-6.078 33.424-6.075 141.33.05 282.659.042 423.988.01 8.661-.001 17.322-.326 25.984-.5 5.94 40.31 11.877 80.62 17.823 120.929.768 5.204 1.584 10.402 2.247 17.343z"/><path fill="#D7D2C6" d="M4378.42 1609.736c-8.793 1.915-17.454 2.24-26.115 2.242-141.33.031-282.659.038-423.988-.01-10.683-.004-21.34-.276-33.287 4.286-7.884-41.494-13.908-83.181-19.767-126.582 160.453-1.7 320.742-1.686 482.909-1.674 4.449 15.014 7.252 29.995 9.538 45.054 3.789 24.955 7.245 49.96 10.71 76.684z"/><path fill="#2F2C27" d="M4085.325 2982.004c3.402-6.701 7.56-11.441 9.27-16.943 2.011-6.469 7.779-8.616 12.327-14.186 9.485-4.534 17.82-8.909 26.694-11.16 25.473-6.464 48.706-2.404 68.96 17.594 10.005 11.102 16.861 22.704 19.977 37.701.86 11.85.822 22.61.961 35.157-4.94 14.845-9.431 28.217-18.92 40.584-3.717 4.419-7.046 7.566-10.493 10.577-6.61 5.773-14.358 9.247-22.955 10.706-20.762 3.524-40.753.448-59.325-9.086-5.345-2.744-8.878-9.018-14.462-14.335-9.161-14.679-15.407-29.299-17.586-47.019.413-13.821 1.34-26.122 5.552-39.59zm-1019.117 98.411c-1.668-10.16-2.156-19.525-3.02-30.612-.391-12.548-.406-23.375-.78-35.973.172-12.571.704-23.37.952-35.953 1.345-9.803 2.975-17.825 4.907-27.318 12.52-10.009 26.272-11.158 40.333-8.867 9.115 1.486 18 4.382 28.491 6.75 13.44 8.433 25.15 16.993 33.455 30.9 5.105 14.044 9.596 27.27 9.41 43.095-3.092 17.266-6.8 32.843-16.426 47.798-21.187 20.492-46.163 24.397-72.94 20.916-8.49-1.103-17.302-2.367-24.382-10.736z"/><path fill="#AF3129" d="M4594.275 2804.224c.619 1.155 1.142 2.374 1.872 3.454 5.235 7.744 4.187 14.671-2.424 21.107-10.325 10.05-20.547 20.206-33.453 30.666-3.571.158-4.502-.031-5.432-.221l36.22-42.32c-.108-7.34-6.423-10.708-12.79-17.015-7.166-7.172-11.048-14.674-20.133-16.136-5.68 5.314-12.982 8.989-14.22 18.22 8.844 4.295 19.606-1.919 26.475 6.594 3.308 8.173 3.308 8.173-5.121 14.795-1.664.177-2.288-.574-2.288-.574-.11-2.586.785-6.28-.563-7.504-2.122-1.928-5.812-3.104-8.73-2.915-3.062.2-6.192 2.063-8.935 3.775-3.835 2.392-7.337 5.317-11.864 8.666-11.322-13.706-26.304-13.79-41.834-13.308-17.236.535-34.507-.075-53.608-.687-1.896-1.776-1.84-3.046-.07-5.508 5.369-1.575 9.13-1.953 12.402-2.281 1.475-4.884 2.047-8.847 3.902-12.072.969-1.686 4.194-2.075 6.523-1.412.868 14.346.868 14.346 17.28 13.086 2.862-5.796 4.683-12.33 8.694-16.966 6.785-7.84 14.956-14.482 22.544-21.627.77.074 1.538.149 2.923 1.79-5.257 7.795-11.223 13.94-16.958 20.292a41.109 41.109 0 00-5.617 7.977c-1.91 3.543.467 8.616 4.531 9.127 4.416.556 8.956.126 13.004.126 4.616-19.182 18.28-29.533 31.724-40.062 0 0 1.482 1.033 1.587 2.948-6.747 12.216-19.123 18.068-24.186 31.813 5.591 5.827 9.741 13.106 19.773 17.051l-2.374-17.437c5.115-5.204 10.415-11.077 16.225-16.395 7.988-7.311 12.69-7.27 20.534-.101 8.256 7.546 16.268 15.358 24.387 23.054z"/><path fill="#B9A896" d="M4596.046 2804.164c-9.89-7.636-17.902-15.448-26.158-22.994-7.844-7.169-12.546-7.21-20.534.101-5.81 5.318-11.11 11.19-16.225 16.395l2.374 17.437c-10.032-3.945-14.182-11.224-19.773-17.051 5.063-13.745 17.44-19.597 24.706-31.075 6.065-5.65 11.714-10.123 17.437-14.654 12.311 5.562 19.059 15.862 27.671 23.88 8.752 8.146 16.935 16.904 25.833 26.644-4.21 1.252-8.885 1.255-15.331 1.317zm-135.966-16.254c-2.205.975-5.43 1.364-6.4 3.05-1.854 3.225-2.426 7.188-3.9 12.072a740.79 740.79 0 00-12.382 1.325c-7.172-3.158-7.922-7.905-5.172-13.42.872-1.749 2.137-3.387 3.52-4.782 9.358-9.45 18.593-19.036 28.271-28.152 7.739-7.29 10.939-6.324 18.971 5.157.93.938 1.087.779-.227.568-1.821 1.313-2.328 2.836-2.798 4.316.037-.044.125-.12-1.17-.254-1.82 1.344-2.345 2.823-2.832 4.255.039-.045.13-.122-1.163-.25-1.821 1.347-2.35 2.823-2.838 4.252.04-.047.133-.127-1.153-.243-1.82 1.353-2.355 2.823-2.848 4.244.041-.048.137-.13-1.14-.228-1.819 1.361-2.361 2.82-2.861 4.23.042-.05.14-.136-1.124-.212-1.815 1.367-2.366 2.812-2.877 4.21.04-.047.123-.138.123-.138z"/><path fill="#B9A896" d="M4508.816 2762.626c-7.682 8.56-15.853 15.201-22.638 23.042-4.011 4.637-5.832 11.17-8.694 16.966-16.412 1.26-16.412 1.26-17.28-13.086-.124-1.638-.207-1.547.91-1.607 1.739-1.383 2.362-2.705 2.984-4.027 0 0-.098.086 1.013.017 1.736-1.384 2.36-2.699 2.985-4.014 0 0-.096.083 1.017.017 1.736-1.382 2.358-2.698 2.98-4.014 0 0-.093.08 1.023.018 1.736-1.38 2.355-2.697 2.975-4.015 0 0-.091.077 1.03.02 1.736-1.377 2.352-2.697 2.967-4.018 0 0-.088.075 1.035.027 1.732-1.37 2.342-2.691 2.952-4.013 0 0-.156.16-.23.244 3.507-2.56 7.07-5.228 10.67-7.843 6.576-4.777 8.62-4.075 14.301 6.286zm29.547-.745c-13.477 11.94-27.142 22.29-31.758 41.472-4.048 0-8.588.43-13.004-.126-4.064-.51-6.44-5.584-4.531-9.127a41.109 41.109 0 015.617-7.977c5.735-6.352 11.7-12.497 18.074-19.977 4.073-4.165 7.448-7.388 11.305-9.858 2.038-1.306 5.296-2.355 7.32-1.625 2.687.967 4.705 3.785 6.977 7.218z"/><path fill="#E43B31" d="M4390.058 3063.604c-.314-21.354-.627-42.708 1.27-65.868 85.547-1.797 168.885-1.787 252.224-1.777.237 10.368.473 20.737-1.008 33.128-10.878 6.08-20.038 10.135-31.138 14.519-17.028.734-32.114 1.139-48.264 1.892-3.37 3.924-3.177 7.439-.745 12.072.177 2.73.299 4.285-.597 6.527-4.065 1.65-7.114 2.615-10.245 2.35-.986-5.07-3.78-6.27-7.157-7.95-11.384-14.813-24.451-18.216-40.006-11.273-5.37 2.397-10.106 6.217-16.747 9.206-4.863-.271-8.109-.362-12.148-1.666-10.532-9.503-21.855-12.53-34.201-9.837-11.91 2.6-21.628 8.891-29.175 19.86-8.486-.564-15.275-.873-22.063-1.183z"/><path fill="#DA2E21" d="M4643.887 2994.134c-83.674 1.815-167.012 1.805-252.08 1.787-2.123-16.135-2.517-32.263-.672-50.188 85.684-1.775 169.129-1.753 252.573-1.73.171 16.102.342 32.204.179 50.131z"/><path fill="#3B3732" d="M4613.346 3043.278c9.16-4.056 18.32-8.111 28.921-12.505 1.441 34.752 1.441 69.842 1.441 106.209-4.541.647-8.874 1.8-13.208 1.803-76.924.047-153.849-.046-231.482-1.09 3.256-3.118 7.22-5.258 11.186-7.393 6.838-3.682 13.676-7.36 21.809-10.82 16.54 4.81 30.78 4.465 43.341-7.918-1.227-2.8-2.231-5.094-1.986-8.11 3.799-2.079 6.347-3.434 9.676-3.731 4.119 5.152 6.968 9.802 10.88 13.246 18.699 16.462 47.902 11.146 59.46-10.925 3.915-7.476 7.428-15.553 3.063-24.76-5.568-.588-10.765-1.136-15.346-2.66 3.923-2.967 7.23-4.957 10.537-6.948 3.048-.964 6.097-1.929 12.024-3.317 8.015-.16 13.151.103 19.222.414.413 5.28.997 9.743 1.065 14.215.19 12.533.085 25.072.32 37.604.034 1.796 1.303 3.57 2.29 6.095 5.595-.626 11.601 2.683 16.621-3.277 2.396-17.9-1.64-36.417 2.382-54.477l18.573-1.946v-17.576l-10.789-2.133z"/><path fill="#D02211" d="M4644.076 2942.262c-83.812 1.718-167.257 1.696-252.449 1.678-1.708-9.169-1.669-18.341-.963-29.093 4.605-4.706 8.543-7.835 15.419-10.961 11.775 3.16 20.818 4.268 30.258 4.225 51.17-.234 102.344-.322 153.513.037 12.782.09 25.117-1.102 37.157-5.31 2.937 1.79 5.875 3.58 9.833 5.634 1.433.843 1.846 1.423 3.27 3.565 1.679 2.797 2.712 3.476 4.111 3.6.073 8.294.146 16.59-.149 26.625z"/><path fill="#E95951" d="M4430.718 3119.261l-20.514 11.041a870.803 870.803 0 00-13.04 7.132c-3.26-.338-6.253-.877-7.259-2.586-1.211-2.059-.952-5.112-.952-7.734-.007-19.94.079-39.879.62-61.664 7.273-1.536 14.062-1.227 22.178 1.017.802 4.542.152 7.133-.226 9.762-2.263 15.717 2.04 28.95 14.833 38.964 1.56 1.22 2.912 2.706 4.36 4.068z"/><path fill="#CEC2B5" d="M4644.052 2914.704c-1.226.81-2.259.13-3.061-2.058 1.236-.788 2.244-.094 3.061 2.058z"/><path fill="#33302B" d="M3670.423 2986.21c3.401-11.477 6.69-21.227 10.593-32.3 4.335-1.448 8.057-1.574 13.163-1.354 4.503 8.824 7.623 17.303 11.7 26.723 4.042 15.857 7.128 30.774 10.694 47.262.073 12.419-5.172 19.006-16.3 19.727-7.227.468-14.588.982-21.727.125-8.554-1.027-14.795-5.63-15.85-16.784 2.273-14.908 4.944-28.29 7.727-43.4z"/><path fill="#C61A07" d="M4626.594 2901.46c-11.623 5.586-23.958 6.778-36.74 6.688-51.169-.36-102.342-.27-153.513-.037-9.44.043-18.483-1.065-29.196-4.529-1.577-1.012-1.278-1.719.898-3.488 2.519-2.215 3.16-3.368 3.802-4.52 5.813-7.04 10.746-15.163 17.695-20.805 6.476-5.258 15.105-7.376 24.035-7.279 23.176.254 46.359.081 69.538.068 4.636-.003 9.393.591 13.873-.259 4.373-.83 8.462-3.154 13.48-6.111.804-1.288 2.605-1.537 3.489-1.748 1.813-.02 2.744.17 5.09.51 1.093.884.767 1.619-.68 3.929-.131 2.377.86 3.178 1.852 3.979 5.918-.044 11.87.29 17.749-.21 12.234-1.041 21.63 3.905 29.596 12.692 6.075 6.698 12.4 13.169 19.032 21.12z"/><path fill="#B9B19D" d="M4572 2807.605c-8.479-7.545-19.24-1.33-28.086-5.626 1.239-9.231 8.54-12.906 14.221-18.22 9.085 1.462 12.967 8.964 18.905 15.412-.842 3.202-2.136 5.334-5.04 8.434z"/><path fill="#AF3129" d="M4527.706 2835.475c7.544.63 13.683-1.608 19.987 3.124-15.778 3.188-30.548 2.232-48.95.649 10.95-5.734 19.278-2.956 28.963-3.773zm31.294-8.613c.695-1.122 1.39-2.243 3.034-3.716.947-.352 1.571.399 1.896.764-.35 1.513-1.025 2.66-3.01 3.731-1.31-.075-1.92-.78-1.92-.78zm-3.54 4.58c.518-1.26 1.037-2.518 2.548-4.179.992-.401 1.602.303 1.915.65-.382 1.494-1.078 2.642-2.957 3.828-1.183.037-1.507-.3-1.507-.3zm.482.508c-.971 1.02-2.102 1.87-3.233 2.72.18-.936.358-1.872 1.644-3.018 1.106-.21 1.43.126 1.59.297zm3.72 35.013c-.437.094-1.428-.707-2.012-2.115.757.003 1.107.612 2.012 2.115z"/><path fill="#D02211" d="M4410.951 2896.048c.253.678-.389 1.83-1.928 3.441-.254-.684.39-1.825 1.928-3.441z"/><path fill="#AF3129" d="M4482.76 2763.728c.705 1.533.095 2.855-1.674 4.269-.653-1.433-.146-2.956 1.675-4.27zm-3.967 4.062c.68 1.456.064 2.776-1.711 4.2-.634-1.377-.11-2.856 1.711-4.2zm-3.995 4.004c.673 1.447.054 2.765-1.722 4.191-.628-1.367-.1-2.843 1.722-4.19zm-3.991 4.01c.664 1.432.042 2.748-1.735 4.178-.62-1.355-.086-2.825 1.735-4.178zm-3.987 4.016c.651 1.412.027 2.727-1.752 4.16-.61-1.34-.068-2.799 1.752-4.16zm-3.986 4.018c.642 1.398.019 2.72-1.76 4.15-.606-1.338-.055-2.783 1.76-4.15z"/><path fill="#F1EFEB" d="M4540.484 3075.6l15.963 1.683c4.365 9.208.852 17.285-3.063 24.761-11.558 22.07-40.761 27.387-59.46 10.925-3.912-3.444-6.761-8.094-11.206-14.86-5.55-16.992-.404-29.422 6.543-41.498 5.025-3.17 9.76-6.99 15.13-9.387 15.556-6.943 28.623-3.54 38.73 11.77-3.522 3.705-5.592 5.379-8.085 7.394-3.584-.852-7.34-2.037-11.187-2.596-6.869-.996-13.479-.2-18.29 5.493-5.033 5.955-7.444 12.58-3.02 21.476 3.768 8.808 10.26 11.929 17.715 11.748 6.202-.15 12.416-2.193 15.17-10.164-4.65-.843-8.633-.953-12.029-2.422-1.888-.817-2.797-3.898-3.653-7.457 1.475-5.252 4.473-5.801 7.676-6.014 4.355-.289 8.71-.569 13.066-.852z"/><path fill="#F3F1EE" d="M4432.013 3119.482c-2.743-1.583-4.096-3.068-5.655-4.289-12.794-10.014-17.096-23.247-14.833-38.964.378-2.63 1.028-5.22 1.923-9.508 6.22-12.903 15.937-19.195 27.848-21.794 12.346-2.693 23.67.334 33.4 10.954-3.44 5.34-6.87 8.35-9.854 10.97-5.405-1.201-9.844-2.858-14.348-3.057-11.262-.495-19.022 6.905-19.535 17.862-.663 14.188 10.057 23.408 24.721 19.461 6.834-1.839 11.453-.636 16.439 3.06l3.235 7.387c-12.561 12.383-26.801 12.728-43.341 7.918z"/><path fill="#F1EFEB" d="M4611.406 3043.606c5.16.309 8.38.945 12.729 1.805v17.576l-18.573 1.946c-4.022 18.06.014 36.578-2.382 54.477-5.02 5.96-11.026 2.651-16.62 3.277-.988-2.525-2.257-4.299-2.291-6.095-.235-12.532-.13-25.07-.32-37.604-.068-4.472-.652-8.936-1.065-14.215-6.07-.311-11.207-.575-18.204-1.1-1.984-1.818-2.106-3.374-1.73-7.431.75-5.365 1.002-8.229 1.254-11.092 15.088-.405 30.174-.81 47.202-1.544z"/><path fill="#ED4E46" d="M4473.368 3103.454c-6.235-2.973-10.854-4.176-17.688-2.337-14.664 3.947-25.384-5.273-24.72-19.461.512-10.957 8.272-18.357 19.534-17.862 4.504.199 8.943 1.856 14.348 3.057 2.984-2.62 6.414-5.63 10.646-9.757 4.048-1.026 7.294-.935 12.157-.664-5.33 12.257-10.477 24.687-5.707 40.62-2.223 2.97-4.771 4.325-8.57 6.404z"/><path fill="#E95951" d="M4502.063 3089.479c-3.948-7.614-1.537-14.24 3.497-20.194 4.81-5.692 11.42-6.49 18.29-5.493 3.846.56 7.602 1.744 11.186 2.596 2.493-2.015 4.563-3.689 7.912-5.86 4.827-.352 7.621.849 8.607 5.92-3.224 3.219-6.53 5.21-10.454 8.176-4.972 1.26-9.328 1.54-13.683 1.828-3.203.213-6.201.762-9.15 6.245-6.715 3.414-11.46 5.098-16.206 6.782z"/><path fill="#B9A896" d="M4563.142 3045.498c.81 2.515.558 5.379-.247 9.57-2.93-2.131-3.123-5.646.247-9.57z"/><path fill="#3B3732" d="M4502.538 3090.761c4.27-2.966 9.015-4.65 15.235-6.565 2.825 1.829 3.734 4.91 5.622 5.727 3.396 1.469 7.379 1.579 12.028 2.422-2.753 7.97-8.967 10.014-15.169 10.164-7.454.18-13.947-2.94-17.716-11.748z"/></svg>